<svg xmlns="http://www.w3.org/2000/svg" xmlns:xlink="http://www.w3.org/1999/xlink" contentStyleType="text/css" data-diagram-type="ACTIVITY" height="8315.625px" preserveAspectRatio="none" style="width:7843px;height:8315px;" version="1.1" viewBox="0 0 7843 8315" width="7843.75px" zoomAndPan="magnify"><title>Finance Copilot - End-to-End Flow with Swimlanes</title><defs><linearGradient id="gpyj47oas8i4h0" x1="50%" x2="50%" y1="0%" y2="100%"><stop offset="0%" stop-color="#FFFFFF"/><stop offset="100%" stop-color="#EEEEEE"/></linearGradient><linearGradient id="gpyj47oas8i4h1" x1="50%" x2="50%" y1="0%" y2="100%"><stop offset="0%" stop-color="#F18E3E"/><stop offset="100%" stop-color="#EC7211"/></linearGradient></defs><g><g class="title" data-source-line="8"><rect fill="url(#gpyj47oas8i4h0)" height="138.4583" rx="12.5" ry="12.5" style="stroke:#EEEEEE;stroke-width:3.125;" width="1831.9702" x="3002.092" y="46.875"/><text fill="#EC7211" font-family="'Verdana'" font-size="62.5" font-weight="bold" lengthAdjust="spacing" textLength="1769.4702" x="3033.342" y="140.9607">Finance Copilot - End-to-End Flow with Swimlanes</text></g><rect fill="url(#gpyj47oas8i4h0)" height="107.2083" style="stroke:url(#gpyj47oas8i4h0);stroke-width:3.125;" width="7742.4042" x="46.875" y="207.2083"/><rect fill="#E6F3FF" height="8073.1491" style="stroke:#E6F3FF;stroke-width:3.125;" width="1091.9891" x="46.875" y="207.2083"/><ellipse cx="476.6113" cy="361.2915" fill="#0073BB" rx="31.25" ry="31.25" style="stroke:#222222;stroke-width:3.125;"/><rect fill="url(#gpyj47oas8i4h1)" height="215.2832" rx="12.5" ry="12.5" style="stroke:#EC7211;stroke-width:1.5625;" width="777.5146" x="87.854" y="455.0415"/><text fill="#FFFFFF" font-family="'Verdana'" font-size="50" lengthAdjust="spacing" textLength="683.7646" x="134.729" y="552.1851">Upload Financial Document</text><text fill="#FFFFFF" font-family="'Verdana'" font-size="50" lengthAdjust="spacing" textLength="422.2656" x="134.729" y="612.9517">(PDF/Excel/CSV)</text><rect fill="url(#gpyj47oas8i4h1)" height="215.2832" rx="12.5" ry="12.5" style="stroke:#EC7211;stroke-width:1.5625;" width="821.9727" x="65.625" y="732.8247"/><text fill="#FFFFFF" font-family="'Verdana'" font-size="50" lengthAdjust="spacing" textLength="554.4189" x="112.5" y="829.9683">Ask Question via Chat</text><text fill="#FFFFFF" font-family="'Verdana'" font-size="50" lengthAdjust="spacing" textLength="728.2227" x="112.5" y="890.7349">"Analyze Q3 revenue trends"</text><rect fill="url(#gpyj47oas8i4h1)" height="154.5166" rx="12.5" ry="12.5" style="stroke:#EC7211;stroke-width:1.5625;" width="716.4307" x="118.396" y="7417.3828"/><text fill="#FFFFFF" font-family="'Verdana'" font-size="50" lengthAdjust="spacing" textLength="622.6807" x="165.271" y="7514.5264">Review financial analysis</text><rect fill="url(#gpyj47oas8i4h1)" height="154.5166" rx="12.5" ry="12.5" style="stroke:#EC7211;stroke-width:1.5625;" width="690.9424" x="131.1401" y="7634.3994"/><text fill="#FFFFFF" font-family="'Verdana'" font-size="50" lengthAdjust="spacing" textLength="597.1924" x="178.0151" y="7731.543">Ask follow-up questions</text><rect fill="url(#gpyj47oas8i4h1)" height="154.5166" rx="12.5" ry="12.5" style="stroke:#EC7211;stroke-width:1.5625;" width="664.8926" x="144.165" y="8063.3408"/><text fill="#FFFFFF" font-family="'Verdana'" font-size="50" lengthAdjust="spacing" textLength="571.1426" x="191.04" y="8160.4843">Ask follow-up question</text><polygon fill="#EEEEEE" points="184.6802,7865.2679,768.5425,7865.2679,806.0425,7911.2762,768.5425,7957.2845,184.6802,7957.2845,147.1802,7911.2762,184.6802,7865.2679" style="stroke:#BEBEBE;stroke-width:1.5625;"/><text fill="#4E5D6C" font-family="'Verdana'" font-size="56.25" lengthAdjust="spacing" textLength="164.743" x="504.7363" y="8029.4617">&#10060; No</text><text fill="#4E5D6C" font-family="'Verdana'" font-size="50" lengthAdjust="spacing" textLength="552.6123" x="200.3052" y="7931.1615">Satisfied with results?</text><text fill="#4E5D6C" font-family="'Verdana'" font-size="56.25" lengthAdjust="spacing" textLength="185.9467" x="821.6675" y="7883.8409">&#9989; Yes</text><ellipse cx="1091.9891" cy="7911.2762" fill="none" rx="34.375" ry="34.375" style="stroke:#222222;stroke-width:3.125;"/><ellipse cx="1091.9891" cy="7911.2762" fill="#222222" rx="18.75" ry="18.75" style="stroke:#222222;stroke-width:3.125;"/><line style="stroke:#0073BB;stroke-width:6.25;" x1="46.875" x2="46.875" y1="207.2083" y2="8280.3574"/><rect fill="#CCE5FF" height="8073.1491" style="stroke:#CCE5FF;stroke-width:3.125;" width="934.4971" x="1138.8641" y="207.2083"/><rect fill="url(#gpyj47oas8i4h1)" height="154.5166" rx="12.5" ry="12.5" style="stroke:#EC7211;stroke-width:1.5625;" width="565.2344" x="1326.6205" y="1010.6079"/><text fill="#FFFFFF" font-family="'Verdana'" font-size="50" lengthAdjust="spacing" textLength="471.4844" x="1373.4955" y="1107.7515">Receive file upload</text><rect fill="url(#gpyj47oas8i4h1)" height="154.5166" rx="12.5" ry="12.5" style="stroke:#EC7211;stroke-width:1.5625;" width="740.9668" x="1238.7543" y="1227.6245"/><text fill="#FFFFFF" font-family="'Verdana'" font-size="50" lengthAdjust="spacing" textLength="647.2168" x="1285.6293" y="1324.7681">Validate file format &amp; size</text><rect fill="url(#gpyj47oas8i4h1)" height="154.5166" rx="12.5" ry="12.5" style="stroke:#EC7211;stroke-width:1.5625;" width="696.9482" x="1260.7635" y="1444.6411"/><text fill="#FFFFFF" font-family="'Verdana'" font-size="50" lengthAdjust="spacing" textLength="603.1982" x="1307.6385" y="1541.7847">Display upload progress</text><rect fill="url(#gpyj47oas8i4h1)" height="154.5166" rx="12.5" ry="12.5" style="stroke:#EC7211;stroke-width:1.5625;" width="903.2471" x="1157.6141" y="1661.6577"/><text fill="#FFFFFF" font-family="'Verdana'" font-size="50" lengthAdjust="spacing" textLength="809.4971" x="1204.4891" y="1758.8013">Send HTTPS request to backend</text><rect fill="url(#gpyj47oas8i4h1)" height="154.5166" rx="12.5" ry="12.5" style="stroke:#EC7211;stroke-width:1.5625;" width="633.0811" x="1292.6971" y="1878.6743"/><text fill="#FFFFFF" font-family="'Verdana'" font-size="50" lengthAdjust="spacing" textLength="539.3311" x="1339.5721" y="1975.8179">Show loading spinner</text><rect fill="url(#gpyj47oas8i4h1)" height="154.5166" rx="12.5" ry="12.5" style="stroke:#EC7211;stroke-width:1.5625;" width="633.9111" x="1292.2821" y="6488.5498"/><text fill="#FFFFFF" font-family="'Verdana'" font-size="50" lengthAdjust="spacing" textLength="540.1611" x="1339.1571" y="6585.6934">Receive API response</text><rect fill="url(#gpyj47oas8i4h1)" height="154.5166" rx="12.5" ry="12.5" style="stroke:#EC7211;stroke-width:1.5625;" width="685.3027" x="1266.5863" y="6705.5664"/><text fill="#FFFFFF" font-family="'Verdana'" font-size="50" lengthAdjust="spacing" textLength="591.5527" x="1313.4613" y="6802.71">Parse and validate data</text><rect fill="url(#gpyj47oas8i4h1)" height="215.2832" rx="12.5" ry="12.5" style="stroke:#EC7211;stroke-width:1.5625;" width="615.7715" x="1301.3519" y="6922.583"/><text fill="#FFFFFF" font-family="'Verdana'" font-size="50" lengthAdjust="spacing" textLength="513.2813" x="1348.2269" y="7019.7266">Render insights with</text><text fill="#FFFFFF" font-family="'Verdana'" font-size="50" lengthAdjust="spacing" textLength="522.0215" x="1348.2269" y="7080.4932">charts/tables/graphs</text><rect fill="url(#gpyj47oas8i4h1)" height="154.5166" rx="12.5" ry="12.5" style="stroke:#EC7211;stroke-width:1.5625;" width="751.9043" x="1233.2855" y="7200.3662"/><text fill="#FFFFFF" font-family="'Verdana'" font-size="50" lengthAdjust="spacing" textLength="658.1543" x="1280.1605" y="7297.5098">Display source documents</text><line style="stroke:#0073BB;stroke-width:6.25;" x1="1138.8641" x2="1138.8641" y1="207.2083" y2="8280.3574"/><rect fill="#B3D9FF" height="8073.1491" style="stroke:#B3D9FF;stroke-width:3.125;" width="1963.5498" x="2073.3612" y="207.2083"/><rect fill="url(#gpyj47oas8i4h1)" height="154.5166" rx="12.5" ry="12.5" style="stroke:#EC7211;stroke-width:1.5625;" width="720.9961" x="2730.5756" y="2095.6909"/><text fill="#FFFFFF" font-family="'Verdana'" font-size="50" lengthAdjust="spacing" textLength="627.2461" x="2777.4506" y="2192.8345">Receive file &amp; user query</text><rect fill="url(#gpyj47oas8i4h1)" height="154.5166" rx="12.5" ry="12.5" style="stroke:#EC7211;stroke-width:1.5625;" width="923.7549" x="2629.1962" y="2312.7075"/><text fill="#FFFFFF" font-family="'Verdana'" font-size="50" lengthAdjust="spacing" textLength="830.0049" x="2676.0712" y="2409.8511">Extract text/data from document</text><polygon fill="#EEEEEE" points="2185.8246,2529.7241,2628.476,2529.7241,2665.976,2575.7324,2628.476,2621.7407,2185.8246,2621.7407,2148.3246,2575.7324,2185.8246,2529.7241" style="stroke:#BEBEBE;stroke-width:1.5625;"/><text fill="#4E5D6C" font-family="'Verdana'" font-size="56.25" lengthAdjust="spacing" textLength="109.5886" x="2435.2753" y="2693.9178">PDF</text><text fill="#4E5D6C" font-family="'Verdana'" font-size="50" lengthAdjust="spacing" textLength="411.4014" x="2201.4496" y="2595.6177">Document type?</text><rect fill="url(#gpyj47oas8i4h1)" height="154.5166" rx="12.5" ry="12.5" style="stroke:#EC7211;stroke-width:1.5625;" width="630.0781" x="2092.1112" y="2783.8531"/><text fill="#FFFFFF" font-family="'Verdana'" font-size="50" lengthAdjust="spacing" textLength="536.3281" x="2138.9862" y="2880.9967">Extract using PyPDF2</text><polygon fill="#EEEEEE" points="2979.8309,2529.7241,3141.8427,2529.7241,3179.3427,2575.7324,3141.8427,2621.7407,2979.8309,2621.7407,2942.3309,2575.7324,2979.8309,2529.7241" style="stroke:#BEBEBE;stroke-width:1.5625;"/><text fill="#4E5D6C" font-family="'Verdana'" font-size="50" lengthAdjust="spacing" textLength="130.7617" x="2995.4559" y="2595.6177">Excel</text><rect fill="url(#gpyj47oas8i4h1)" height="154.5166" rx="12.5" ry="12.5" style="stroke:#EC7211;stroke-width:1.5625;" width="552.2949" x="2784.6893" y="2715.4907"/><text fill="#FFFFFF" font-family="'Verdana'" font-size="50" lengthAdjust="spacing" textLength="458.5449" x="2831.5643" y="2812.6343">Parse with pandas</text><polygon fill="#EEEEEE" points="3599.3744,2529.7241,3733.8959,2529.7241,3771.3959,2575.7324,3733.8959,2621.7407,3599.3744,2621.7407,3561.8744,2575.7324,3599.3744,2529.7241" style="stroke:#BEBEBE;stroke-width:1.5625;"/><text fill="#4E5D6C" font-family="'Verdana'" font-size="50" lengthAdjust="spacing" textLength="103.2715" x="3614.9994" y="2595.6177">CSV</text><rect fill="url(#gpyj47oas8i4h1)" height="154.5166" rx="12.5" ry="12.5" style="stroke:#EC7211;stroke-width:1.5625;" width="534.3018" x="3399.4843" y="2715.4907"/><text fill="#FFFFFF" font-family="'Verdana'" font-size="50" lengthAdjust="spacing" textLength="440.5518" x="3446.3593" y="2812.6343">Load with pandas</text><rect fill="url(#gpyj47oas8i4h1)" height="154.5166" rx="12.5" ry="12.5" style="stroke:#EC7211;stroke-width:1.5625;" width="719.8486" x="2731.1493" y="3063.3698"/><text fill="#FFFFFF" font-family="'Verdana'" font-size="50" lengthAdjust="spacing" textLength="626.0986" x="2778.0243" y="3160.5133">Split content into chunks</text><rect fill="url(#gpyj47oas8i4h1)" height="154.5166" rx="12.5" ry="12.5" style="stroke:#EC7211;stroke-width:1.5625;" width="646.3867" x="2767.8802" y="3280.3864"/><text fill="#FFFFFF" font-family="'Verdana'" font-size="50" lengthAdjust="spacing" textLength="552.6367" x="2814.7552" y="3377.5299">Generate embeddings</text><rect fill="url(#gpyj47oas8i4h1)" height="215.2832" rx="12.5" ry="12.5" style="stroke:#EC7211;stroke-width:1.5625;" width="597.0703" x="2792.5385" y="3937.6862"/><text fill="#FFFFFF" font-family="'Verdana'" font-size="50" lengthAdjust="spacing" textLength="503.3203" x="2839.4135" y="4034.8297">Query vector DB for</text><text fill="#FFFFFF" font-family="'Verdana'" font-size="50" lengthAdjust="spacing" textLength="399.7803" x="2839.4135" y="4095.5963">relevant chunks</text><rect fill="url(#gpyj47oas8i4h1)" height="215.2832" rx="12.5" ry="12.5" style="stroke:#EC7211;stroke-width:1.5625;" width="558.1299" x="2812.0087" y="4215.4694"/><text fill="#FFFFFF" font-family="'Verdana'" font-size="50" lengthAdjust="spacing" textLength="464.3799" x="2858.8837" y="4312.6129">Build context from</text><text fill="#FFFFFF" font-family="'Verdana'" font-size="50" lengthAdjust="spacing" textLength="459.79" x="2858.8837" y="4373.3795">similar documents</text><rect fill="url(#gpyj47oas8i4h1)" height="215.2832" rx="12.5" ry="12.5" style="stroke:#EC7211;stroke-width:1.5625;" width="697.0703" x="2742.5385" y="4493.2526"/><text fill="#FFFFFF" font-family="'Verdana'" font-size="50" lengthAdjust="spacing" textLength="517.041" x="2789.4135" y="4590.3961">Prepare prompt with</text><text fill="#FFFFFF" font-family="'Verdana'" font-size="50" lengthAdjust="spacing" textLength="603.3203" x="2789.4135" y="4651.1627">user question + context</text><rect fill="url(#gpyj47oas8i4h1)" height="154.5166" rx="12.5" ry="12.5" style="stroke:#EC7211;stroke-width:1.5625;" width="642.627" x="2769.7601" y="5837.5"/><text fill="#FFFFFF" font-family="'Verdana'" font-size="50" lengthAdjust="spacing" textLength="548.877" x="2816.6351" y="5934.6436">Process LLM response</text><rect fill="url(#gpyj47oas8i4h1)" height="154.5166" rx="12.5" ry="12.5" style="stroke:#EC7211;stroke-width:1.5625;" width="795.8984" x="2693.1244" y="6054.5166"/><text fill="#FFFFFF" font-family="'Verdana'" font-size="50" lengthAdjust="spacing" textLength="702.1484" x="2739.9994" y="6151.6602">Add metadata &amp; source refs</text><rect fill="url(#gpyj47oas8i4h1)" height="154.5166" rx="12.5" ry="12.5" style="stroke:#EC7211;stroke-width:1.5625;" width="667.5049" x="2757.3212" y="6271.5332"/><text fill="#FFFFFF" font-family="'Verdana'" font-size="50" lengthAdjust="spacing" textLength="573.7549" x="2804.1962" y="6368.6768">Format JSON response</text><line style="stroke:#0073BB;stroke-width:6.25;" x1="2073.3612" x2="2073.3612" y1="207.2083" y2="8280.3574"/><rect fill="#99CCFF" height="8073.1491" style="stroke:#99CCFF;stroke-width:3.125;" width="2232.0557" x="4036.911" y="207.2083"/><rect fill="#1D8102" height="18.75" rx="7.8125" ry="7.8125" style="stroke:#1D8102;stroke-width:3.125;" width="2200.8057" x="4055.661" y="3497.403"/><rect fill="url(#gpyj47oas8i4h1)" height="215.2832" rx="12.5" ry="12.5" style="stroke:#EC7211;stroke-width:1.5625;" width="752.2705" x="4093.161" y="3578.653"/><text fill="#FFFFFF" font-family="'Verdana'" font-size="50" lengthAdjust="spacing" textLength="658.5205" x="4140.036" y="3675.7965">Store document metadata</text><text fill="#FFFFFF" font-family="'Verdana'" font-size="50" lengthAdjust="spacing" textLength="475.6104" x="4140.036" y="3736.5631">in Supabase RelDB</text><rect fill="url(#gpyj47oas8i4h1)" height="215.2832" rx="12.5" ry="12.5" style="stroke:#EC7211;stroke-width:1.5625;" width="602.0752" x="4876.6815" y="3578.653"/><text fill="#FFFFFF" font-family="'Verdana'" font-size="50" lengthAdjust="spacing" textLength="508.3252" x="4923.5565" y="3675.7965">Save embeddings in</text><text fill="#FFFFFF" font-family="'Verdana'" font-size="50" lengthAdjust="spacing" textLength="464.624" x="4923.5565" y="3736.5631">pgvector database</text><rect fill="url(#gpyj47oas8i4h1)" height="215.2832" rx="12.5" ry="12.5" style="stroke:#EC7211;stroke-width:1.5625;" width="708.96" x="5510.0067" y="3578.653"/><text fill="#FFFFFF" font-family="'Verdana'" font-size="50" lengthAdjust="spacing" textLength="468.6279" x="5556.8817" y="3675.7965">Upload original file</text><text fill="#FFFFFF" font-family="'Verdana'" font-size="50" lengthAdjust="spacing" textLength="615.21" x="5556.8817" y="3736.5631">to Google Cloud Storage</text><rect fill="#1D8102" height="18.75" rx="7.8125" ry="7.8125" style="stroke:#1D8102;stroke-width:3.125;" width="2200.8057" x="4055.661" y="3856.4362"/><line style="stroke:#0073BB;stroke-width:6.25;" x1="4036.911" x2="4036.911" y1="207.2083" y2="8280.3574"/><rect fill="#80BFFF" height="8073.1491" style="stroke:#80BFFF;stroke-width:3.125;" width="1496.8262" x="6268.9667" y="207.2083"/><polygon fill="#EEEEEE" points="6353.3417,4771.0358,6961.3983,4771.0358,6998.8983,4817.0441,6961.3983,4863.0524,6353.3417,4863.0524,6315.8417,4817.0441,6353.3417,4771.0358" style="stroke:#BEBEBE;stroke-width:1.5625;"/><text fill="#4E5D6C" font-family="'Verdana'" font-size="56.25" lengthAdjust="spacing" textLength="185.9467" x="6685.495" y="4935.2295">&#9989; Yes</text><text fill="#4E5D6C" font-family="'Verdana'" font-size="50" lengthAdjust="spacing" textLength="576.8066" x="6368.9667" y="4836.9293">Primary LLM available?</text><rect fill="url(#gpyj47oas8i4h1)" height="215.2832" rx="12.5" ry="12.5" style="stroke:#EC7211;stroke-width:1.5625;" width="536.9141" x="6388.913" y="5002.417"/><text fill="#FFFFFF" font-family="'Verdana'" font-size="50" lengthAdjust="spacing" textLength="394.2871" x="6435.788" y="5099.5605">Send prompt to</text><text fill="#FFFFFF" font-family="'Verdana'" font-size="50" lengthAdjust="spacing" textLength="443.1641" x="6435.788" y="5160.3271">Hugging Face API</text><polygon fill="#EEEEEE" points="7098.8983,4771.0358,7561.3251,4771.0358,7598.8251,4817.0441,7561.3251,4863.0524,7098.8983,4863.0524,7061.3983,4817.0441,7098.8983,4771.0358" style="stroke:#BEBEBE;stroke-width:1.5625;"/><text fill="#4E5D6C" font-family="'Verdana'" font-size="56.25" lengthAdjust="spacing" textLength="304.4312" x="7358.2367" y="4935.2295">&#9888;&#65039; Fallback</text><text fill="#4E5D6C" font-family="'Verdana'" font-size="50" lengthAdjust="spacing" textLength="431.1768" x="7114.5233" y="4836.9293">Fallback needed?</text><rect fill="url(#gpyj47oas8i4h1)" height="215.2832" rx="12.5" ry="12.5" style="stroke:#EC7211;stroke-width:1.5625;" width="488.0371" x="7086.0931" y="5002.417"/><text fill="#FFFFFF" font-family="'Verdana'" font-size="50" lengthAdjust="spacing" textLength="394.2871" x="7132.9681" y="5099.5605">Send prompt to</text><text fill="#FFFFFF" font-family="'Verdana'" font-size="50" lengthAdjust="spacing" textLength="290.1123" x="7132.9681" y="5160.3271">OpenAI API</text><rect fill="url(#gpyj47oas8i4h1)" height="215.2832" rx="12.5" ry="12.5" style="stroke:#EC7211;stroke-width:1.5625;" width="761.5479" x="6688.1683" y="5342.7002"/><text fill="#FFFFFF" font-family="'Verdana'" font-size="50" lengthAdjust="spacing" textLength="667.7979" x="6735.0433" y="5439.8438">Generate financial insights</text><text fill="#FFFFFF" font-family="'Verdana'" font-size="50" lengthAdjust="spacing" textLength="254.7363" x="6735.0433" y="5500.6104">&amp; analysis</text><rect fill="url(#gpyj47oas8i4h1)" height="154.5166" rx="12.5" ry="12.5" style="stroke:#EC7211;stroke-width:1.5625;" width="782.3242" x="6677.7802" y="5620.4834"/><text fill="#FFFFFF" font-family="'Verdana'" font-size="50" lengthAdjust="spacing" textLength="688.5742" x="6724.6552" y="5717.627">Return structured response</text><line style="stroke:#0073BB;stroke-width:6.25;" x1="6268.9667" x2="6268.9667" y1="207.2083" y2="8280.3574"/><line style="stroke:#0073BB;stroke-width:6.25;" x1="7765.7928" x2="7765.7928" y1="207.2083" y2="8280.3574"/><line style="stroke:#EC7211;stroke-width:9.375;" x1="476.6113" x2="476.6113" y1="392.5415" y2="455.0415"/><polygon fill="#EC7211" points="464.1113,423.7915,476.6113,455.0415,489.1113,423.7915,476.6113,436.2915" style="stroke:#EC7211;stroke-width:3.125;"/><line style="stroke:#EC7211;stroke-width:9.375;" x1="476.6113" x2="476.6113" y1="670.3247" y2="732.8247"/><polygon fill="#EC7211" points="464.1113,701.5747,476.6113,732.8247,489.1113,701.5747,476.6113,714.0747" style="stroke:#EC7211;stroke-width:3.125;"/><line style="stroke:#EC7211;stroke-width:9.375;" x1="476.6113" x2="476.6113" y1="7571.8994" y2="7634.3994"/><polygon fill="#EC7211" points="464.1113,7603.1494,476.6113,7634.3994,489.1113,7603.1494,476.6113,7615.6494" style="stroke:#EC7211;stroke-width:3.125;"/><line style="stroke:#EC7211;stroke-width:9.375;" x1="476.6113" x2="476.6113" y1="7957.2845" y2="8063.3408"/><polygon fill="#EC7211" points="464.1113,8032.0908,476.6113,8063.3408,489.1113,8032.0908,476.6113,8044.5908" style="stroke:#EC7211;stroke-width:3.125;"/><line style="stroke:#EC7211;stroke-width:9.375;" x1="806.0425" x2="1057.6141" y1="7911.2762" y2="7911.2762"/><polygon fill="#EC7211" points="1026.3641,7898.7762,1057.6141,7911.2762,1026.3641,7923.7762,1038.8641,7911.2762" style="stroke:#EC7211;stroke-width:3.125;"/><line style="stroke:#EC7211;stroke-width:9.375;" x1="476.6113" x2="476.6113" y1="8217.8574" y2="8280.3574"/><polygon fill="#EC7211" points="464.1113,8249.1074,476.6113,8280.3574,489.1113,8249.1074,476.6113,8261.6074" style="stroke:#EC7211;stroke-width:3.125;"/><line style="stroke:#EC7211;stroke-width:9.375;" x1="476.6113" x2="476.6113" y1="7788.916" y2="7865.2679"/><polygon fill="#EC7211" points="464.1113,7834.0179,476.6113,7865.2679,489.1113,7834.0179,476.6113,7846.5179" style="stroke:#EC7211;stroke-width:3.125;"/><line style="stroke:#EC7211;stroke-width:9.375;" x1="1609.2377" x2="1609.2377" y1="1165.1245" y2="1227.6245"/><polygon fill="#EC7211" points="1596.7377,1196.3745,1609.2377,1227.6245,1621.7377,1196.3745,1609.2377,1208.8745" style="stroke:#EC7211;stroke-width:3.125;"/><line style="stroke:#EC7211;stroke-width:9.375;" x1="1609.2377" x2="1609.2377" y1="1382.1411" y2="1444.6411"/><polygon fill="#EC7211" points="1596.7377,1413.3911,1609.2377,1444.6411,1621.7377,1413.3911,1609.2377,1425.8911" style="stroke:#EC7211;stroke-width:3.125;"/><line style="stroke:#EC7211;stroke-width:9.375;" x1="1609.2377" x2="1609.2377" y1="1599.1577" y2="1661.6577"/><polygon fill="#EC7211" points="1596.7377,1630.4077,1609.2377,1661.6577,1621.7377,1630.4077,1609.2377,1642.9077" style="stroke:#EC7211;stroke-width:3.125;"/><line style="stroke:#EC7211;stroke-width:9.375;" x1="1609.2377" x2="1609.2377" y1="1816.1743" y2="1878.6743"/><polygon fill="#EC7211" points="1596.7377,1847.4243,1609.2377,1878.6743,1621.7377,1847.4243,1609.2377,1859.9243" style="stroke:#EC7211;stroke-width:3.125;"/><line style="stroke:#EC7211;stroke-width:9.375;" x1="1609.2377" x2="1609.2377" y1="6643.0664" y2="6705.5664"/><polygon fill="#EC7211" points="1596.7377,6674.3164,1609.2377,6705.5664,1621.7377,6674.3164,1609.2377,6686.8164" style="stroke:#EC7211;stroke-width:3.125;"/><line style="stroke:#EC7211;stroke-width:9.375;" x1="1609.2377" x2="1609.2377" y1="6860.083" y2="6922.583"/><polygon fill="#EC7211" points="1596.7377,6891.333,1609.2377,6922.583,1621.7377,6891.333,1609.2377,6903.833" style="stroke:#EC7211;stroke-width:3.125;"/><line style="stroke:#EC7211;stroke-width:9.375;" x1="1609.2377" x2="1609.2377" y1="7137.8662" y2="7200.3662"/><polygon fill="#EC7211" points="1596.7377,7169.1162,1609.2377,7200.3662,1621.7377,7169.1162,1609.2377,7181.6162" style="stroke:#EC7211;stroke-width:3.125;"/><line style="stroke:#EC7211;stroke-width:9.375;" x1="3091.0736" x2="3091.0736" y1="2250.2075" y2="2312.7075"/><polygon fill="#EC7211" points="3078.5736,2281.4575,3091.0736,2312.7075,3103.5736,2281.4575,3091.0736,2293.9575" style="stroke:#EC7211;stroke-width:3.125;"/><line style="stroke:#EC7211;stroke-width:9.375;" x1="2407.1503" x2="2407.1503" y1="2621.7407" y2="2783.8531"/><polygon fill="#EC7211" points="2394.6503,2752.6031,2407.1503,2783.8531,2419.6503,2752.6031,2407.1503,2765.1031" style="stroke:#EC7211;stroke-width:3.125;"/><line style="stroke:#EC7211;stroke-width:9.375;" x1="2407.1503" x2="2407.1503" y1="2938.3698" y2="3000.8698"/><polygon fill="#EC7211" points="2394.6503,2969.6198,2407.1503,3000.8698,2419.6503,2969.6198,2407.1503,2982.1198" style="stroke:#EC7211;stroke-width:3.125;"/><line style="stroke:#EC7211;stroke-width:9.375;" x1="3060.8368" x2="3060.8368" y1="2621.7407" y2="2715.4907"/><polygon fill="#EC7211" points="3048.3368,2684.2407,3060.8368,2715.4907,3073.3368,2684.2407,3060.8368,2696.7407" style="stroke:#EC7211;stroke-width:3.125;"/><line style="stroke:#EC7211;stroke-width:9.375;" x1="3060.8368" x2="3060.8368" y1="2870.0073" y2="3000.8698"/><polygon fill="#EC7211" points="3048.3368,2969.6198,3060.8368,3000.8698,3073.3368,2969.6198,3060.8368,2982.1198" style="stroke:#EC7211;stroke-width:3.125;"/><line style="stroke:#EC7211;stroke-width:9.375;" x1="3666.6351" x2="3666.6351" y1="2621.7407" y2="2715.4907"/><polygon fill="#EC7211" points="3654.1351,2684.2407,3666.6351,2715.4907,3679.1351,2684.2407,3666.6351,2696.7407" style="stroke:#EC7211;stroke-width:3.125;"/><line style="stroke:#EC7211;stroke-width:9.375;" x1="3666.6351" x2="3666.6351" y1="2870.0073" y2="3000.8698"/><polygon fill="#EC7211" points="3654.1351,2969.6198,3666.6351,3000.8698,3679.1351,2969.6198,3666.6351,2982.1198" style="stroke:#EC7211;stroke-width:3.125;"/><line style="stroke:#EC7211;stroke-width:9.375;" x1="2665.976" x2="2942.3309" y1="2575.7324" y2="2575.7324"/><polygon fill="#EC7211" points="2911.0809,2563.2324,2942.3309,2575.7324,2911.0809,2588.2324,2923.5809,2575.7324" style="stroke:#EC7211;stroke-width:3.125;"/><line style="stroke:#EC7211;stroke-width:9.375;" x1="3179.3427" x2="3561.8744" y1="2575.7324" y2="2575.7324"/><polygon fill="#EC7211" points="3530.6244,2563.2324,3561.8744,2575.7324,3530.6244,2588.2324,3543.1244,2575.7324" style="stroke:#EC7211;stroke-width:3.125;"/><line style="stroke:#EC7211;stroke-width:9.375;" x1="3091.0736" x2="3091.0736" y1="2467.2241" y2="2482.8491"/><line style="stroke:#EC7211;stroke-width:9.375;" x1="3091.0736" x2="2407.1503" y1="2482.8491" y2="2482.8491"/><line style="stroke:#EC7211;stroke-width:9.375;" x1="2407.1503" x2="2407.1503" y1="2482.8491" y2="2529.7241"/><polygon fill="#EC7211" points="2394.6503,2498.4741,2407.1503,2529.7241,2419.6503,2498.4741,2407.1503,2510.9741" style="stroke:#EC7211;stroke-width:3.125;"/><line style="stroke:#EC7211;stroke-width:9.375;" x1="3771.3959" x2="3977.536" y1="2575.7324" y2="2575.7324"/><line style="stroke:#EC7211;stroke-width:9.375;" x1="3977.536" x2="3977.536" y1="2575.7324" y2="2812.1719"/><line style="stroke:#EC7211;stroke-width:9.375;" x1="3977.536" x2="3977.536" y1="2812.1719" y2="3000.8698"/><polygon fill="#EC7211" points="3965.036,2969.6198,3977.536,3000.8698,3990.036,2969.6198,3977.536,2982.1198" style="stroke:#EC7211;stroke-width:3.125;"/><line style="stroke:#EC7211;stroke-width:9.375;" x1="2407.1503" x2="3977.536" y1="3000.8698" y2="3000.8698"/><line style="stroke:#EC7211;stroke-width:9.375;" x1="3091.0736" x2="3091.0736" y1="3000.8698" y2="3063.3698"/><polygon fill="#EC7211" points="3078.5736,3032.1198,3091.0736,3063.3698,3103.5736,3032.1198,3091.0736,3044.6198" style="stroke:#EC7211;stroke-width:3.125;"/><line style="stroke:#EC7211;stroke-width:9.375;" x1="3091.0736" x2="3091.0736" y1="3217.8864" y2="3280.3864"/><polygon fill="#EC7211" points="3078.5736,3249.1364,3091.0736,3280.3864,3103.5736,3249.1364,3091.0736,3261.6364" style="stroke:#EC7211;stroke-width:3.125;"/><line style="stroke:#EC7211;stroke-width:9.375;" x1="3091.0736" x2="3091.0736" y1="4152.9694" y2="4215.4694"/><polygon fill="#EC7211" points="3078.5736,4184.2194,3091.0736,4215.4694,3103.5736,4184.2194,3091.0736,4196.7194" style="stroke:#EC7211;stroke-width:3.125;"/><line style="stroke:#EC7211;stroke-width:9.375;" x1="3091.0736" x2="3091.0736" y1="4430.7526" y2="4493.2526"/><polygon fill="#EC7211" points="3078.5736,4462.0026,3091.0736,4493.2526,3103.5736,4462.0026,3091.0736,4474.5026" style="stroke:#EC7211;stroke-width:3.125;"/><line style="stroke:#EC7211;stroke-width:9.375;" x1="3091.0736" x2="3091.0736" y1="5992.0166" y2="6054.5166"/><polygon fill="#EC7211" points="3078.5736,6023.2666,3091.0736,6054.5166,3103.5736,6023.2666,3091.0736,6035.7666" style="stroke:#EC7211;stroke-width:3.125;"/><line style="stroke:#EC7211;stroke-width:9.375;" x1="3091.0736" x2="3091.0736" y1="6209.0332" y2="6271.5332"/><polygon fill="#EC7211" points="3078.5736,6240.2832,3091.0736,6271.5332,3103.5736,6240.2832,3091.0736,6252.7832" style="stroke:#EC7211;stroke-width:3.125;"/><line style="stroke:#EC7211;stroke-width:9.375;" x1="4469.2963" x2="4469.2963" y1="3516.153" y2="3578.653"/><polygon fill="#EC7211" points="4456.7963,3547.403,4469.2963,3578.653,4481.7963,3547.403,4469.2963,3559.903" style="stroke:#EC7211;stroke-width:3.125;"/><line style="stroke:#EC7211;stroke-width:9.375;" x1="5177.7191" x2="5177.7191" y1="3516.153" y2="3578.653"/><polygon fill="#EC7211" points="5165.2191,3547.403,5177.7191,3578.653,5190.2191,3547.403,5177.7191,3559.903" style="stroke:#EC7211;stroke-width:3.125;"/><line style="stroke:#EC7211;stroke-width:9.375;" x1="5864.4867" x2="5864.4867" y1="3516.153" y2="3578.653"/><polygon fill="#EC7211" points="5851.9867,3547.403,5864.4867,3578.653,5876.9867,3547.403,5864.4867,3559.903" style="stroke:#EC7211;stroke-width:3.125;"/><line style="stroke:#EC7211;stroke-width:9.375;" x1="4469.2963" x2="4469.2963" y1="3793.9362" y2="3856.4362"/><polygon fill="#EC7211" points="4456.7963,3825.1862,4469.2963,3856.4362,4481.7963,3825.1862,4469.2963,3837.6862" style="stroke:#EC7211;stroke-width:3.125;"/><line style="stroke:#EC7211;stroke-width:9.375;" x1="5177.7191" x2="5177.7191" y1="3793.9362" y2="3856.4362"/><polygon fill="#EC7211" points="5165.2191,3825.1862,5177.7191,3856.4362,5190.2191,3825.1862,5177.7191,3837.6862" style="stroke:#EC7211;stroke-width:3.125;"/><line style="stroke:#EC7211;stroke-width:9.375;" x1="5864.4867" x2="5864.4867" y1="3793.9362" y2="3856.4362"/><polygon fill="#EC7211" points="5851.9867,3825.1862,5864.4867,3856.4362,5876.9867,3825.1862,5864.4867,3837.6862" style="stroke:#EC7211;stroke-width:3.125;"/><line style="stroke:#EC7211;stroke-width:9.375;" x1="6657.37" x2="6657.37" y1="4863.0524" y2="5002.417"/><polygon fill="#EC7211" points="6644.87,4971.167,6657.37,5002.417,6669.87,4971.167,6657.37,4983.667" style="stroke:#EC7211;stroke-width:3.125;"/><line style="stroke:#EC7211;stroke-width:9.375;" x1="6657.37" x2="6657.37" y1="5217.7002" y2="5280.2002"/><polygon fill="#EC7211" points="6644.87,5248.9502,6657.37,5280.2002,6669.87,5248.9502,6657.37,5261.4502" style="stroke:#EC7211;stroke-width:3.125;"/><line style="stroke:#EC7211;stroke-width:9.375;" x1="7330.1117" x2="7330.1117" y1="4863.0524" y2="5002.417"/><polygon fill="#EC7211" points="7317.6117,4971.167,7330.1117,5002.417,7342.6117,4971.167,7330.1117,4983.667" style="stroke:#EC7211;stroke-width:3.125;"/><line style="stroke:#EC7211;stroke-width:9.375;" x1="7330.1117" x2="7330.1117" y1="5217.7002" y2="5280.2002"/><polygon fill="#EC7211" points="7317.6117,5248.9502,7330.1117,5280.2002,7342.6117,5248.9502,7330.1117,5261.4502" style="stroke:#EC7211;stroke-width:3.125;"/><line style="stroke:#EC7211;stroke-width:9.375;" x1="6998.8983" x2="7061.3983" y1="4817.0441" y2="4817.0441"/><polygon fill="#EC7211" points="7030.1483,4804.5441,7061.3983,4817.0441,7030.1483,4829.5441,7042.6483,4817.0441" style="stroke:#EC7211;stroke-width:3.125;"/><line style="stroke:#EC7211;stroke-width:9.375;" x1="3091.0736" x2="3091.0736" y1="4708.5358" y2="4724.1608"/><line style="stroke:#EC7211;stroke-width:9.375;" x1="3091.0736" x2="6657.37" y1="4724.1608" y2="4724.1608"/><line style="stroke:#EC7211;stroke-width:9.375;" x1="6657.37" x2="6657.37" y1="4724.1608" y2="4771.0358"/><polygon fill="#EC7211" points="6644.87,4739.7858,6657.37,4771.0358,6669.87,4739.7858,6657.37,4752.2858" style="stroke:#EC7211;stroke-width:3.125;"/><line style="stroke:#EC7211;stroke-width:9.375;" x1="7598.8251" x2="7706.4178" y1="4817.0441" y2="4817.0441"/><line style="stroke:#EC7211;stroke-width:9.375;" x1="7706.4178" x2="7706.4178" y1="4817.0441" y2="5061.1191"/><line style="stroke:#EC7211;stroke-width:9.375;" x1="7706.4178" x2="7706.4178" y1="5061.1191" y2="5280.2002"/><polygon fill="#EC7211" points="7693.9178,5248.9502,7706.4178,5280.2002,7718.9178,5248.9502,7706.4178,5261.4502" style="stroke:#EC7211;stroke-width:3.125;"/><line style="stroke:#EC7211;stroke-width:9.375;" x1="6657.37" x2="7706.4178" y1="5280.2002" y2="5280.2002"/><line style="stroke:#EC7211;stroke-width:9.375;" x1="7068.9423" x2="7068.9423" y1="5280.2002" y2="5342.7002"/><polygon fill="#EC7211" points="7056.4423,5311.4502,7068.9423,5342.7002,7081.4423,5311.4502,7068.9423,5323.9502" style="stroke:#EC7211;stroke-width:3.125;"/><line style="stroke:#EC7211;stroke-width:9.375;" x1="7068.9423" x2="7068.9423" y1="5557.9834" y2="5620.4834"/><polygon fill="#EC7211" points="7056.4423,5589.2334,7068.9423,5620.4834,7081.4423,5589.2334,7068.9423,5601.7334" style="stroke:#EC7211;stroke-width:3.125;"/><line style="stroke:#EC7211;stroke-width:9.375;" x1="476.6113" x2="476.6113" y1="948.1079" y2="963.7329"/><line style="stroke:#EC7211;stroke-width:9.375;" x1="476.6113" x2="1609.2377" y1="963.7329" y2="963.7329"/><line style="stroke:#EC7211;stroke-width:9.375;" x1="1609.2377" x2="1609.2377" y1="963.7329" y2="1010.6079"/><polygon fill="#EC7211" points="1596.7377,979.3579,1609.2377,1010.6079,1621.7377,979.3579,1609.2377,991.8579" style="stroke:#EC7211;stroke-width:3.125;"/><line style="stroke:#EC7211;stroke-width:9.375;" x1="1609.2377" x2="1609.2377" y1="2033.1909" y2="2048.8159"/><line style="stroke:#EC7211;stroke-width:9.375;" x1="1609.2377" x2="3091.0736" y1="2048.8159" y2="2048.8159"/><line style="stroke:#EC7211;stroke-width:9.375;" x1="3091.0736" x2="3091.0736" y1="2048.8159" y2="2095.6909"/><polygon fill="#EC7211" points="3078.5736,2064.4409,3091.0736,2095.6909,3103.5736,2064.4409,3091.0736,2076.9409" style="stroke:#EC7211;stroke-width:3.125;"/><line style="stroke:#EC7211;stroke-width:9.375;" x1="3091.0736" x2="3091.0736" y1="3434.903" y2="3450.528"/><line style="stroke:#EC7211;stroke-width:9.375;" x1="3091.0736" x2="5156.0638" y1="3450.528" y2="3450.528"/><line style="stroke:#EC7211;stroke-width:9.375;" x1="5156.0638" x2="5156.0638" y1="3450.528" y2="3497.403"/><polygon fill="#EC7211" points="5143.5638,3466.153,5156.0638,3497.403,5168.5638,3466.153,5156.0638,3478.653" style="stroke:#EC7211;stroke-width:3.125;"/><line style="stroke:#EC7211;stroke-width:9.375;" x1="5156.0638" x2="5156.0638" y1="3875.1862" y2="3890.8112"/><line style="stroke:#EC7211;stroke-width:9.375;" x1="5156.0638" x2="3091.0736" y1="3890.8112" y2="3890.8112"/><line style="stroke:#EC7211;stroke-width:9.375;" x1="3091.0736" x2="3091.0736" y1="3890.8112" y2="3937.6862"/><polygon fill="#EC7211" points="3078.5736,3906.4362,3091.0736,3937.6862,3103.5736,3906.4362,3091.0736,3918.9362" style="stroke:#EC7211;stroke-width:3.125;"/><line style="stroke:#EC7211;stroke-width:9.375;" x1="7068.9423" x2="7068.9423" y1="5775" y2="5790.625"/><line style="stroke:#EC7211;stroke-width:9.375;" x1="7068.9423" x2="3091.0736" y1="5790.625" y2="5790.625"/><line style="stroke:#EC7211;stroke-width:9.375;" x1="3091.0736" x2="3091.0736" y1="5790.625" y2="5837.5"/><polygon fill="#EC7211" points="3078.5736,5806.25,3091.0736,5837.5,3103.5736,5806.25,3091.0736,5818.75" style="stroke:#EC7211;stroke-width:3.125;"/><line style="stroke:#EC7211;stroke-width:9.375;" x1="3091.0736" x2="3091.0736" y1="6426.0498" y2="6441.6748"/><line style="stroke:#EC7211;stroke-width:9.375;" x1="3091.0736" x2="1609.2377" y1="6441.6748" y2="6441.6748"/><line style="stroke:#EC7211;stroke-width:9.375;" x1="1609.2377" x2="1609.2377" y1="6441.6748" y2="6488.5498"/><polygon fill="#EC7211" points="1596.7377,6457.2998,1609.2377,6488.5498,1621.7377,6457.2998,1609.2377,6469.7998" style="stroke:#EC7211;stroke-width:3.125;"/><line style="stroke:#EC7211;stroke-width:9.375;" x1="1609.2377" x2="1609.2377" y1="7354.8828" y2="7370.5078"/><line style="stroke:#EC7211;stroke-width:9.375;" x1="1609.2377" x2="476.6113" y1="7370.5078" y2="7370.5078"/><line style="stroke:#EC7211;stroke-width:9.375;" x1="476.6113" x2="476.6113" y1="7370.5078" y2="7417.3828"/><polygon fill="#EC7211" points="464.1113,7386.1328,476.6113,7417.3828,489.1113,7386.1328,476.6113,7398.6328" style="stroke:#EC7211;stroke-width:3.125;"/><text fill="#EC7211" font-family="'Verdana'" font-size="62.5" lengthAdjust="spacing" textLength="841.925" x="171.907" y="285.6689">&#128100; User (Business Analyst)</text><text fill="#EC7211" font-family="'Verdana'" font-size="62.5" lengthAdjust="spacing" textLength="800.4761" x="1205.8746" y="285.6689">Frontend (React - Vercel)</text><text fill="#EC7211" font-family="'Verdana'" font-size="62.5" lengthAdjust="spacing" textLength="1005.0964" x="2552.5879" y="285.6689">Backend (FastAPI + LangChain)</text><text fill="#EC7211" font-family="'Verdana'" font-size="62.5" lengthAdjust="spacing" textLength="956.7261" x="4674.5758" y="285.6689">Data Layer (Supabase + GCS)</text><text fill="#EC7211" font-family="'Verdana'" font-size="62.5" lengthAdjust="spacing" textLength="317.4438" x="6858.6578" y="285.6689">LLM Layer</text><!--SRC=[bLNDRYD54BxFKnIB52MAB2yRiTh41-I_oIuokqwSZOJaIsMcF6wvtJrqzunZbElULa9S4GWEF0JFmml08r3L7lyiv10kjjLTFrzztzVbpyASbWIuyYthq1IK-0mrmLdY5ygKw709ESsmqY6r9apKzmHVl3gun2oeMeNr_lRbmQrVgQL6GpSgQDg5l7X-469ie1kw3rsj2hCa4o3Z3t994YG9KcNGP0HzMofj0xHWQF9Mi2t-WbJR5QnKcCEawUIJvE7puSlqB4qV_lxrnz_XlIS7nxtAAxxqq3MerpwSF2G-e0l9nVjIMyoRDWer36nM2OwfEHuFqlRmFYFTxazkJph9HTSluAeY7vGrK2k4_Xmvy5ciofDTdO6Zcan541oPt3_h29v-V_WbuqaTCy2dS7nDp1kFSakEgpEOYslAIDK4CyKpLn4Jzxj5hN8CpV7CkYK6E0BFBFBjGFbIuxe9XzBPml6CV3EHBgzlRiOJnlET08PWuGwp1L_8_PnvaoHb2l2bCePSHDex6vmpqjuc4evJzA4xVWEdC69tyBJA_0Vj4LJ2CRTnQwuzl0zEfWiiQfl18yoSPHSrj7OIDOFZBSaGrYLzTG9iGmF2zqa2i2iXeXKmNlFvYqv2sfFaHaMQ58aUe_EqSK699aU_3nNPOg34ZOIaJyDChcRCHgaLsowA4q0PfYgRLsOXJ5uIKoCAqFAESk7BHwBEp_jz9ceWyurmBHwRL2NU8KCvXSl-X6bYlHRIU1Aienq1iAI0milKA0Exf6lIWrudvW0Mp7FCnFgmCsERchAeAUEA83KazTz9ZQEjKmMRMaUHfZBKfRK5wzNNjif1G651aGI8I9yk_vL83GsCGK_IfyQHfXhb_MwvwrLAvnjUxqDqmTHujLGQtOuDYHixubr0Ok1b6Q94KxFrrEQjdMxBHF9VFU-b37Cq-cR3_KFqrDYf9J8kESOQkSsTtdlhpvy_mBVaex_YysYw1JirhwkY4AUbo8k6vzqRA4MjvTc08SeftrVxwRU__lW1jjUFLdrNakc-QUfjdBPpqsotRXHJKio3dveZmBYSb71oJQ5o1dnmLSQ_AEU7x4jhHEwd2pLsDfEj9vJiyo-wURvpeQmJM_4Que2PT4utM-RhoRktd_Ry7rjCe1pqsxnGVdHGRnUQj8vZcfnrtfBGQ9_DUJNxTX01VRjmMCxzmRvhy1vOwAaxd_lLYbO7z1zGBijzPZN_fRIgScSzlrbO4mpApnGr6uI7uxz4_vYxVB1bz0-V_l8HtjfeZiUBRutn3m00]--></g></svg>