<svg xmlns="http://www.w3.org/2000/svg" xmlns:xlink="http://www.w3.org/1999/xlink" contentStyleType="text/css" data-diagram-type="ACTIVITY" height="2532.2917px" preserveAspectRatio="none" style="width:2105px;height:2532px;" version="1.1" viewBox="0 0 2105 2532" width="2105.2083px" zoomAndPan="magnify"><title>Finance Copilot - End-to-End Flow with Swimlanes</title><defs><linearGradient id="g1mmiyq0pdozjb0" x1="50%" x2="50%" y1="0%" y2="100%"><stop offset="0%" stop-color="#FFFFFF"/><stop offset="100%" stop-color="#EEEEEE"/></linearGradient><linearGradient id="g1mmiyq0pdozjb1" x1="50%" x2="50%" y1="0%" y2="100%"><stop offset="0%" stop-color="#F18E3E"/><stop offset="100%" stop-color="#EC7211"/></linearGradient></defs><g><g class="title" data-source-line="2"><rect fill="url(#g1mmiyq0pdozjb0)" height="46.1528" rx="4.1667" ry="4.1667" style="stroke:#EEEEEE;stroke-width:1.0417;" width="610.6567" x="745.9249" y="15.625"/><text fill="#EC7211" font-family="'Verdana'" font-size="20.8333" font-weight="bold" lengthAdjust="spacing" textLength="589.8234" x="756.3416" y="46.9869">Finance Copilot - End-to-End Flow with Swimlanes</text></g><rect fill="url(#g1mmiyq0pdozjb0)" height="25.6083" style="stroke:url(#g1mmiyq0pdozjb0);stroke-width:1.0417;" width="2071.2565" x="15.625" y="69.0694"/><rect fill="#E6F3FF" height="2451.0081" style="stroke:#E6F3FF;stroke-width:1.0417;" width="291.3564" x="15.625" y="69.0694"/><ellipse cx="128.5278" cy="110.3027" fill="#0073BB" rx="10.4167" ry="10.4167" style="stroke:#222222;stroke-width:1.0417;"/><rect fill="url(#g1mmiyq0pdozjb1)" height="61.6333" rx="4.1667" ry="4.1667" style="stroke:#EC7211;stroke-width:0.5208;" width="202.1912" x="27.4323" y="141.5527"/><text fill="#FFFFFF" font-family="'Verdana'" font-size="12.5" lengthAdjust="spacing" textLength="170.9412" x="43.0573" y="169.7449">Upload Financial Document</text><text fill="#FFFFFF" font-family="'Verdana'" font-size="12.5" lengthAdjust="spacing" textLength="105.5664" x="43.0573" y="184.9365">(PDF/Excel/CSV)</text><rect fill="url(#g1mmiyq0pdozjb1)" height="61.6333" rx="4.1667" ry="4.1667" style="stroke:#EC7211;stroke-width:0.5208;" width="213.3057" x="21.875" y="224.0194"/><text fill="#FFFFFF" font-family="'Verdana'" font-size="12.5" lengthAdjust="spacing" textLength="138.6047" x="37.5" y="252.2115">Ask Question via Chat</text><text fill="#FFFFFF" font-family="'Verdana'" font-size="12.5" lengthAdjust="spacing" textLength="182.0557" x="37.5" y="267.4032">"Analyze Q3 revenue trends"</text><rect fill="url(#g1mmiyq0pdozjb1)" height="46.4417" rx="4.1667" ry="4.1667" style="stroke:#EC7211;stroke-width:0.5208;" width="186.9202" x="35.0677" y="2261.0901"/><text fill="#FFFFFF" font-family="'Verdana'" font-size="12.5" lengthAdjust="spacing" textLength="155.6702" x="50.6927" y="2289.2822">Review financial analysis</text><rect fill="url(#g1mmiyq0pdozjb1)" height="46.4417" rx="4.1667" ry="4.1667" style="stroke:#EC7211;stroke-width:0.5208;" width="180.5481" x="38.2538" y="2328.3651"/><text fill="#FFFFFF" font-family="'Verdana'" font-size="12.5" lengthAdjust="spacing" textLength="149.2981" x="53.8788" y="2356.5572">Ask follow-up questions</text><rect fill="url(#g1mmiyq0pdozjb1)" height="46.4417" rx="4.1667" ry="4.1667" style="stroke:#EC7211;stroke-width:0.5208;" width="174.0356" x="41.51" y="2452.8025"/><text fill="#FFFFFF" font-family="'Verdana'" font-size="12.5" lengthAdjust="spacing" textLength="142.7856" x="57.135" y="2480.9947">Ask follow-up question</text><polygon fill="#EEEEEE" points="54.243,2395.6401,202.8127,2395.6401,215.3127,2408.4442,202.8127,2421.2484,54.243,2421.2484,41.743,2408.4442,54.243,2395.6401" style="stroke:#BEBEBE;stroke-width:0.5208;"/><text fill="#4E5D6C" font-family="'Verdana'" font-size="12.5" lengthAdjust="spacing" textLength="37.9985" x="137.9028" y="2439.0238">&#10060; No</text><text fill="#4E5D6C" font-family="'Verdana'" font-size="12.5" lengthAdjust="spacing" textLength="138.1531" x="59.4513" y="2413.4155">Satisfied with results?</text><text fill="#4E5D6C" font-family="'Verdana'" font-size="12.5" lengthAdjust="spacing" textLength="42.7104" x="220.521" y="2400.6114">&#9989; Yes</text><ellipse cx="291.3564" cy="2408.4442" fill="none" rx="11.4583" ry="11.4583" style="stroke:#222222;stroke-width:1.0417;"/><ellipse cx="291.3564" cy="2408.4442" fill="#222222" rx="6.25" ry="6.25" style="stroke:#222222;stroke-width:1.0417;"/><line style="stroke:#0073BB;stroke-width:2.0833;" x1="15.625" x2="15.625" y1="69.0694" y2="2520.0775"/><rect fill="#CCE5FF" height="2451.0081" style="stroke:#CCE5FF;stroke-width:1.0417;" width="244.0409" x="306.9814" y="69.0694"/><rect fill="url(#g1mmiyq0pdozjb1)" height="46.4417" rx="4.1667" ry="4.1667" style="stroke:#EC7211;stroke-width:0.5208;" width="149.1211" x="355.483" y="306.486"/><text fill="#FFFFFF" font-family="'Verdana'" font-size="12.5" lengthAdjust="spacing" textLength="117.8711" x="371.108" y="334.6781">Receive file upload</text><rect fill="url(#g1mmiyq0pdozjb1)" height="46.4417" rx="4.1667" ry="4.1667" style="stroke:#EC7211;stroke-width:0.5208;" width="193.0542" x="333.5164" y="373.761"/><text fill="#FFFFFF" font-family="'Verdana'" font-size="12.5" lengthAdjust="spacing" textLength="161.8042" x="349.1414" y="401.9531">Validate file format &amp; size</text><rect fill="url(#g1mmiyq0pdozjb1)" height="46.4417" rx="4.1667" ry="4.1667" style="stroke:#EC7211;stroke-width:0.5208;" width="182.0496" x="339.0188" y="441.036"/><text fill="#FFFFFF" font-family="'Verdana'" font-size="12.5" lengthAdjust="spacing" textLength="150.7996" x="354.6438" y="469.2281">Display upload progress</text><rect fill="url(#g1mmiyq0pdozjb1)" height="46.4417" rx="4.1667" ry="4.1667" style="stroke:#EC7211;stroke-width:0.5208;" width="233.6243" x="313.2314" y="508.311"/><text fill="#FFFFFF" font-family="'Verdana'" font-size="12.5" lengthAdjust="spacing" textLength="202.3743" x="328.8564" y="536.5031">Send HTTPS request to backend</text><rect fill="url(#g1mmiyq0pdozjb1)" height="46.4417" rx="4.1667" ry="4.1667" style="stroke:#EC7211;stroke-width:0.5208;" width="166.0828" x="347.0022" y="575.5859"/><text fill="#FFFFFF" font-family="'Verdana'" font-size="12.5" lengthAdjust="spacing" textLength="134.8328" x="362.6272" y="603.7781">Show loading spinner</text><rect fill="url(#g1mmiyq0pdozjb1)" height="46.4417" rx="4.1667" ry="4.1667" style="stroke:#EC7211;stroke-width:0.5208;" width="166.2903" x="346.8984" y="1976.7985"/><text fill="#FFFFFF" font-family="'Verdana'" font-size="12.5" lengthAdjust="spacing" textLength="135.0403" x="362.5234" y="2004.9906">Receive API response</text><rect fill="url(#g1mmiyq0pdozjb1)" height="46.4417" rx="4.1667" ry="4.1667" style="stroke:#EC7211;stroke-width:0.5208;" width="179.1382" x="340.4744" y="2044.0735"/><text fill="#FFFFFF" font-family="'Verdana'" font-size="12.5" lengthAdjust="spacing" textLength="147.8882" x="356.0994" y="2072.2656">Parse and validate data</text><rect fill="url(#g1mmiyq0pdozjb1)" height="61.6333" rx="4.1667" ry="4.1667" style="stroke:#EC7211;stroke-width:0.5208;" width="161.7554" x="349.1659" y="2111.3485"/><text fill="#FFFFFF" font-family="'Verdana'" font-size="12.5" lengthAdjust="spacing" textLength="128.3203" x="364.7909" y="2139.5406">Render insights with</text><text fill="#FFFFFF" font-family="'Verdana'" font-size="12.5" lengthAdjust="spacing" textLength="130.5054" x="364.7909" y="2154.7323">charts/tables/graphs</text><rect fill="url(#g1mmiyq0pdozjb1)" height="46.4417" rx="4.1667" ry="4.1667" style="stroke:#EC7211;stroke-width:0.5208;" width="195.7886" x="332.1493" y="2193.8151"/><text fill="#FFFFFF" font-family="'Verdana'" font-size="12.5" lengthAdjust="spacing" textLength="164.5386" x="347.7743" y="2222.0072">Display source documents</text><line style="stroke:#0073BB;stroke-width:2.0833;" x1="306.9814" x2="306.9814" y1="69.0694" y2="2520.0775"/><rect fill="#B3D9FF" height="2451.0081" style="stroke:#B3D9FF;stroke-width:1.0417;" width="534.8979" x="551.0223" y="69.0694"/><rect fill="url(#g1mmiyq0pdozjb1)" height="46.4417" rx="4.1667" ry="4.1667" style="stroke:#EC7211;stroke-width:0.5208;" width="188.0615" x="736.4197" y="642.8609"/><text fill="#FFFFFF" font-family="'Verdana'" font-size="12.5" lengthAdjust="spacing" textLength="156.8115" x="752.0447" y="671.0531">Receive file &amp; user query</text><rect fill="url(#g1mmiyq0pdozjb1)" height="46.4417" rx="4.1667" ry="4.1667" style="stroke:#EC7211;stroke-width:0.5208;" width="238.7512" x="711.0748" y="710.1359"/><text fill="#FFFFFF" font-family="'Verdana'" font-size="12.5" lengthAdjust="spacing" textLength="207.5012" x="726.6998" y="738.328">Extract text/data from document</text><polygon fill="#EEEEEE" points="583.3049,777.4109,696.5719,777.4109,709.0719,790.215,696.5719,803.0192,583.3049,803.0192,570.8049,790.215,583.3049,777.4109" style="stroke:#BEBEBE;stroke-width:0.5208;"/><text fill="#4E5D6C" font-family="'Verdana'" font-size="12.5" lengthAdjust="spacing" textLength="24.353" x="649.3134" y="820.7947">PDF</text><text fill="#4E5D6C" font-family="'Verdana'" font-size="12.5" lengthAdjust="spacing" textLength="102.8503" x="588.5132" y="795.1864">Document type?</text><rect fill="url(#g1mmiyq0pdozjb1)" height="46.4417" rx="4.1667" ry="4.1667" style="stroke:#EC7211;stroke-width:0.5208;" width="165.332" x="557.2723" y="849.4609"/><text fill="#FFFFFF" font-family="'Verdana'" font-size="12.5" lengthAdjust="spacing" textLength="134.082" x="572.8973" y="877.653">Extract using PyPDF2</text><polygon fill="#EEEEEE" points="794.8273,777.4109,837.9344,777.4109,850.4344,790.215,837.9344,803.0192,794.8273,803.0192,782.3273,790.215,794.8273,777.4109" style="stroke:#BEBEBE;stroke-width:0.5208;"/><text fill="#4E5D6C" font-family="'Verdana'" font-size="12.5" lengthAdjust="spacing" textLength="32.6904" x="800.0356" y="795.1864">Excel</text><rect fill="url(#g1mmiyq0pdozjb1)" height="46.4417" rx="4.1667" ry="4.1667" style="stroke:#EC7211;stroke-width:0.5208;" width="145.8862" x="743.4377" y="834.2692"/><text fill="#FFFFFF" font-family="'Verdana'" font-size="12.5" lengthAdjust="spacing" textLength="114.6362" x="759.0627" y="862.4613">Parse with pandas</text><polygon fill="#EEEEEE" points="962.734,777.4109,998.9685,777.4109,1011.4685,790.215,998.9685,803.0192,962.734,803.0192,950.234,790.215,962.734,777.4109" style="stroke:#BEBEBE;stroke-width:0.5208;"/><text fill="#4E5D6C" font-family="'Verdana'" font-size="12.5" lengthAdjust="spacing" textLength="25.8179" x="967.9423" y="795.1864">CSV</text><rect fill="url(#g1mmiyq0pdozjb1)" height="46.4417" rx="4.1667" ry="4.1667" style="stroke:#EC7211;stroke-width:0.5208;" width="141.3879" x="910.1573" y="834.2692"/><text fill="#FFFFFF" font-family="'Verdana'" font-size="12.5" lengthAdjust="spacing" textLength="110.1379" x="925.7823" y="862.4613">Load with pandas</text><rect fill="url(#g1mmiyq0pdozjb1)" height="46.4417" rx="4.1667" ry="4.1667" style="stroke:#EC7211;stroke-width:0.5208;" width="187.7747" x="736.5631" y="937.5692"/><text fill="#FFFFFF" font-family="'Verdana'" font-size="12.5" lengthAdjust="spacing" textLength="156.5247" x="752.1881" y="965.7613">Split content into chunks</text><rect fill="url(#g1mmiyq0pdozjb1)" height="46.4417" rx="4.1667" ry="4.1667" style="stroke:#EC7211;stroke-width:0.5208;" width="169.4092" x="745.7458" y="1004.8442"/><text fill="#FFFFFF" font-family="'Verdana'" font-size="12.5" lengthAdjust="spacing" textLength="138.1592" x="761.3708" y="1033.0363">Generate embeddings</text><rect fill="url(#g1mmiyq0pdozjb1)" height="61.6333" rx="4.1667" ry="4.1667" style="stroke:#EC7211;stroke-width:0.5208;" width="157.0801" x="751.9104" y="1208.7524"/><text fill="#FFFFFF" font-family="'Verdana'" font-size="12.5" lengthAdjust="spacing" textLength="125.8301" x="767.5354" y="1236.9446">Query vector DB for</text><text fill="#FFFFFF" font-family="'Verdana'" font-size="12.5" lengthAdjust="spacing" textLength="99.9451" x="767.5354" y="1252.1362">relevant chunks</text><rect fill="url(#g1mmiyq0pdozjb1)" height="61.6333" rx="4.1667" ry="4.1667" style="stroke:#EC7211;stroke-width:0.5208;" width="147.345" x="756.778" y="1291.2191"/><text fill="#FFFFFF" font-family="'Verdana'" font-size="12.5" lengthAdjust="spacing" textLength="116.095" x="772.403" y="1319.4112">Build context from</text><text fill="#FFFFFF" font-family="'Verdana'" font-size="12.5" lengthAdjust="spacing" textLength="114.9475" x="772.403" y="1334.6029">similar documents</text><rect fill="url(#g1mmiyq0pdozjb1)" height="61.6333" rx="4.1667" ry="4.1667" style="stroke:#EC7211;stroke-width:0.5208;" width="182.0801" x="739.4104" y="1373.6857"/><text fill="#FFFFFF" font-family="'Verdana'" font-size="12.5" lengthAdjust="spacing" textLength="129.2603" x="755.0354" y="1401.8778">Prepare prompt with</text><text fill="#FFFFFF" font-family="'Verdana'" font-size="12.5" lengthAdjust="spacing" textLength="150.8301" x="755.0354" y="1417.0695">user question + context</text><rect fill="url(#g1mmiyq0pdozjb1)" height="46.4417" rx="4.1667" ry="4.1667" style="stroke:#EC7211;stroke-width:0.5208;" width="168.4692" x="746.2158" y="1774.9736"/><text fill="#FFFFFF" font-family="'Verdana'" font-size="12.5" lengthAdjust="spacing" textLength="137.2192" x="761.8408" y="1803.1657">Process LLM response</text><rect fill="url(#g1mmiyq0pdozjb1)" height="46.4417" rx="4.1667" ry="4.1667" style="stroke:#EC7211;stroke-width:0.5208;" width="206.7871" x="727.0569" y="1842.2485"/><text fill="#FFFFFF" font-family="'Verdana'" font-size="12.5" lengthAdjust="spacing" textLength="175.5371" x="742.6819" y="1870.4407">Add metadata &amp; source refs</text><rect fill="url(#g1mmiyq0pdozjb1)" height="46.4417" rx="4.1667" ry="4.1667" style="stroke:#EC7211;stroke-width:0.5208;" width="174.6887" x="743.1061" y="1909.5235"/><text fill="#FFFFFF" font-family="'Verdana'" font-size="12.5" lengthAdjust="spacing" textLength="143.4387" x="758.7311" y="1937.7157">Format JSON response</text><line style="stroke:#0073BB;stroke-width:2.0833;" x1="551.0223" x2="551.0223" y1="69.0694" y2="2520.0775"/><rect fill="#99CCFF" height="2451.0081" style="stroke:#99CCFF;stroke-width:1.0417;" width="595.5139" x="1085.9202" y="69.0694"/><rect fill="#1D8102" height="6.25" rx="2.6042" ry="2.6042" style="stroke:#1D8102;stroke-width:1.0417;" width="585.0972" x="1092.1702" y="1072.1191"/><rect fill="url(#g1mmiyq0pdozjb1)" height="61.6333" rx="4.1667" ry="4.1667" style="stroke:#EC7211;stroke-width:0.5208;" width="195.8801" x="1104.6702" y="1099.2025"/><text fill="#FFFFFF" font-family="'Verdana'" font-size="12.5" lengthAdjust="spacing" textLength="164.6301" x="1120.2952" y="1127.3946">Store document metadata</text><text fill="#FFFFFF" font-family="'Verdana'" font-size="12.5" lengthAdjust="spacing" textLength="118.9026" x="1120.2952" y="1142.5863">in Supabase RelDB</text><rect fill="url(#g1mmiyq0pdozjb1)" height="61.6333" rx="4.1667" ry="4.1667" style="stroke:#EC7211;stroke-width:0.5208;" width="158.3313" x="1310.967" y="1099.2025"/><text fill="#FFFFFF" font-family="'Verdana'" font-size="12.5" lengthAdjust="spacing" textLength="127.0813" x="1326.592" y="1127.3946">Save embeddings in</text><text fill="#FFFFFF" font-family="'Verdana'" font-size="12.5" lengthAdjust="spacing" textLength="116.156" x="1326.592" y="1142.5863">pgvector database</text><rect fill="url(#g1mmiyq0pdozjb1)" height="61.6333" rx="4.1667" ry="4.1667" style="stroke:#EC7211;stroke-width:0.5208;" width="185.0525" x="1479.715" y="1099.2025"/><text fill="#FFFFFF" font-family="'Verdana'" font-size="12.5" lengthAdjust="spacing" textLength="117.157" x="1495.34" y="1127.3946">Upload original file</text><text fill="#FFFFFF" font-family="'Verdana'" font-size="12.5" lengthAdjust="spacing" textLength="153.8025" x="1495.34" y="1142.5863">to Google Cloud Storage</text><rect fill="#1D8102" height="6.25" rx="2.6042" ry="2.6042" style="stroke:#1D8102;stroke-width:1.0417;" width="585.0972" x="1092.1702" y="1181.6691"/><line style="stroke:#0073BB;stroke-width:2.0833;" x1="1085.9202" x2="1085.9202" y1="69.0694" y2="2520.0775"/><rect fill="#80BFFF" height="2451.0081" style="stroke:#80BFFF;stroke-width:1.0417;" width="399.0835" x="1681.4341" y="69.0694"/><polygon fill="#EEEEEE" points="1709.5591,1456.1523,1864.1774,1456.1523,1876.6774,1468.9565,1864.1774,1481.7607,1709.5591,1481.7607,1697.0591,1468.9565,1709.5591,1456.1523" style="stroke:#BEBEBE;stroke-width:0.5208;"/><text fill="#4E5D6C" font-family="'Verdana'" font-size="12.5" lengthAdjust="spacing" textLength="42.7104" x="1796.2433" y="1499.5361">&#9989; Yes</text><text fill="#4E5D6C" font-family="'Verdana'" font-size="12.5" lengthAdjust="spacing" textLength="144.2017" x="1714.7675" y="1473.9278">Primary LLM available?</text><rect fill="url(#g1mmiyq0pdozjb1)" height="61.6333" rx="4.1667" ry="4.1667" style="stroke:#EC7211;stroke-width:0.5208;" width="142.041" x="1715.8478" y="1521.932"/><text fill="#FFFFFF" font-family="'Verdana'" font-size="12.5" lengthAdjust="spacing" textLength="98.5718" x="1731.4728" y="1550.1241">Send prompt to</text><text fill="#FFFFFF" font-family="'Verdana'" font-size="12.5" lengthAdjust="spacing" textLength="110.791" x="1731.4728" y="1565.3158">Hugging Face API</text><polygon fill="#EEEEEE" points="1910.0108,1456.1523,2028.2216,1456.1523,2040.7216,1468.9565,2028.2216,1481.7607,1910.0108,1481.7607,1897.5108,1468.9565,1910.0108,1456.1523" style="stroke:#BEBEBE;stroke-width:0.5208;"/><text fill="#4E5D6C" font-family="'Verdana'" font-size="12.5" lengthAdjust="spacing" textLength="67.6514" x="1978.4912" y="1499.5361">&#9888;&#65039; Fallback</text><text fill="#4E5D6C" font-family="'Verdana'" font-size="12.5" lengthAdjust="spacing" textLength="107.7942" x="1915.2191" y="1473.9278">Fallback needed?</text><rect fill="url(#g1mmiyq0pdozjb1)" height="61.6333" rx="4.1667" ry="4.1667" style="stroke:#EC7211;stroke-width:0.5208;" width="129.8218" x="1904.2053" y="1521.932"/><text fill="#FFFFFF" font-family="'Verdana'" font-size="12.5" lengthAdjust="spacing" textLength="98.5718" x="1919.8303" y="1550.1241">Send prompt to</text><text fill="#FFFFFF" font-family="'Verdana'" font-size="12.5" lengthAdjust="spacing" textLength="72.5281" x="1919.8303" y="1565.3158">OpenAI API</text><rect fill="url(#g1mmiyq0pdozjb1)" height="61.6333" rx="4.1667" ry="4.1667" style="stroke:#EC7211;stroke-width:0.5208;" width="198.1995" x="1799.0636" y="1625.2319"/><text fill="#FFFFFF" font-family="'Verdana'" font-size="12.5" lengthAdjust="spacing" textLength="166.9495" x="1814.6886" y="1653.4241">Generate financial insights</text><text fill="#FFFFFF" font-family="'Verdana'" font-size="12.5" lengthAdjust="spacing" textLength="63.6841" x="1814.6886" y="1668.6157">&amp; analysis</text><rect fill="url(#g1mmiyq0pdozjb1)" height="46.4417" rx="4.1667" ry="4.1667" style="stroke:#EC7211;stroke-width:0.5208;" width="203.3936" x="1796.4666" y="1707.6986"/><text fill="#FFFFFF" font-family="'Verdana'" font-size="12.5" lengthAdjust="spacing" textLength="172.1436" x="1812.0916" y="1735.8907">Return structured response</text><line style="stroke:#0073BB;stroke-width:2.0833;" x1="1681.4341" x2="1681.4341" y1="69.0694" y2="2520.0775"/><line style="stroke:#0073BB;stroke-width:2.0833;" x1="2080.5176" x2="2080.5176" y1="69.0694" y2="2520.0775"/><line style="stroke:#EC7211;stroke-width:3.125;" x1="128.5278" x2="128.5278" y1="120.7194" y2="141.5527"/><polygon fill="#EC7211" points="124.3612,131.1361,128.5278,141.5527,132.6945,131.1361,128.5278,135.3027" style="stroke:#EC7211;stroke-width:1.0417;"/><line style="stroke:#EC7211;stroke-width:3.125;" x1="128.5278" x2="128.5278" y1="203.186" y2="224.0194"/><polygon fill="#EC7211" points="124.3612,213.6027,128.5278,224.0194,132.6945,213.6027,128.5278,217.7694" style="stroke:#EC7211;stroke-width:1.0417;"/><line style="stroke:#EC7211;stroke-width:3.125;" x1="128.5278" x2="128.5278" y1="2307.5317" y2="2328.3651"/><polygon fill="#EC7211" points="124.3612,2317.9484,128.5278,2328.3651,132.6945,2317.9484,128.5278,2322.1151" style="stroke:#EC7211;stroke-width:1.0417;"/><line style="stroke:#EC7211;stroke-width:3.125;" x1="128.5278" x2="128.5278" y1="2421.2484" y2="2452.8025"/><polygon fill="#EC7211" points="124.3612,2442.3859,128.5278,2452.8025,132.6945,2442.3859,128.5278,2446.5525" style="stroke:#EC7211;stroke-width:1.0417;"/><line style="stroke:#EC7211;stroke-width:3.125;" x1="215.3127" x2="279.8981" y1="2408.4442" y2="2408.4442"/><polygon fill="#EC7211" points="269.4814,2404.2775,279.8981,2408.4442,269.4814,2412.6109,273.6481,2408.4442" style="stroke:#EC7211;stroke-width:1.0417;"/><line style="stroke:#EC7211;stroke-width:3.125;" x1="128.5278" x2="128.5278" y1="2499.2442" y2="2520.0775"/><polygon fill="#EC7211" points="124.3612,2509.6608,128.5278,2520.0775,132.6945,2509.6608,128.5278,2513.8275" style="stroke:#EC7211;stroke-width:1.0417;"/><line style="stroke:#EC7211;stroke-width:3.125;" x1="128.5278" x2="128.5278" y1="2374.8067" y2="2395.6401"/><polygon fill="#EC7211" points="124.3612,2385.2234,128.5278,2395.6401,132.6945,2385.2234,128.5278,2389.3901" style="stroke:#EC7211;stroke-width:1.0417;"/><line style="stroke:#EC7211;stroke-width:3.125;" x1="430.0435" x2="430.0435" y1="352.9277" y2="373.761"/><polygon fill="#EC7211" points="425.8769,363.3443,430.0435,373.761,434.2102,363.3443,430.0435,367.511" style="stroke:#EC7211;stroke-width:1.0417;"/><line style="stroke:#EC7211;stroke-width:3.125;" x1="430.0435" x2="430.0435" y1="420.2026" y2="441.036"/><polygon fill="#EC7211" points="425.8769,430.6193,430.0435,441.036,434.2102,430.6193,430.0435,434.786" style="stroke:#EC7211;stroke-width:1.0417;"/><line style="stroke:#EC7211;stroke-width:3.125;" x1="430.0435" x2="430.0435" y1="487.4776" y2="508.311"/><polygon fill="#EC7211" points="425.8769,497.8943,430.0435,508.311,434.2102,497.8943,430.0435,502.061" style="stroke:#EC7211;stroke-width:1.0417;"/><line style="stroke:#EC7211;stroke-width:3.125;" x1="430.0435" x2="430.0435" y1="554.7526" y2="575.5859"/><polygon fill="#EC7211" points="425.8769,565.1693,430.0435,575.5859,434.2102,565.1693,430.0435,569.3359" style="stroke:#EC7211;stroke-width:1.0417;"/><line style="stroke:#EC7211;stroke-width:3.125;" x1="430.0435" x2="430.0435" y1="2023.2402" y2="2044.0735"/><polygon fill="#EC7211" points="425.8769,2033.6568,430.0435,2044.0735,434.2102,2033.6568,430.0435,2037.8235" style="stroke:#EC7211;stroke-width:1.0417;"/><line style="stroke:#EC7211;stroke-width:3.125;" x1="430.0435" x2="430.0435" y1="2090.5151" y2="2111.3485"/><polygon fill="#EC7211" points="425.8769,2100.9318,430.0435,2111.3485,434.2102,2100.9318,430.0435,2105.0985" style="stroke:#EC7211;stroke-width:1.0417;"/><line style="stroke:#EC7211;stroke-width:3.125;" x1="430.0435" x2="430.0435" y1="2172.9818" y2="2193.8151"/><polygon fill="#EC7211" points="425.8769,2183.3984,430.0435,2193.8151,434.2102,2183.3984,430.0435,2187.5651" style="stroke:#EC7211;stroke-width:1.0417;"/><line style="stroke:#EC7211;stroke-width:3.125;" x1="830.4504" x2="830.4504" y1="689.3026" y2="710.1359"/><polygon fill="#EC7211" points="826.2838,699.7192,830.4504,710.1359,834.6171,699.7192,830.4504,703.8859" style="stroke:#EC7211;stroke-width:1.0417;"/><line style="stroke:#EC7211;stroke-width:3.125;" x1="639.9384" x2="639.9384" y1="803.0192" y2="849.4609"/><polygon fill="#EC7211" points="635.7717,839.0442,639.9384,849.4609,644.105,839.0442,639.9384,843.2109" style="stroke:#EC7211;stroke-width:1.0417;"/><line style="stroke:#EC7211;stroke-width:3.125;" x1="639.9384" x2="639.9384" y1="895.9025" y2="916.7358"/><polygon fill="#EC7211" points="635.7717,906.3192,639.9384,916.7358,644.105,906.3192,639.9384,910.4858" style="stroke:#EC7211;stroke-width:1.0417;"/><line style="stroke:#EC7211;stroke-width:3.125;" x1="816.3808" x2="816.3808" y1="803.0192" y2="834.2692"/><polygon fill="#EC7211" points="812.2142,823.8525,816.3808,834.2692,820.5475,823.8525,816.3808,828.0192" style="stroke:#EC7211;stroke-width:1.0417;"/><line style="stroke:#EC7211;stroke-width:3.125;" x1="816.3808" x2="816.3808" y1="880.7109" y2="916.7358"/><polygon fill="#EC7211" points="812.2142,906.3192,816.3808,916.7358,820.5475,906.3192,816.3808,910.4858" style="stroke:#EC7211;stroke-width:1.0417;"/><line style="stroke:#EC7211;stroke-width:3.125;" x1="980.8512" x2="980.8512" y1="803.0192" y2="834.2692"/><polygon fill="#EC7211" points="976.6846,823.8525,980.8512,834.2692,985.0179,823.8525,980.8512,828.0192" style="stroke:#EC7211;stroke-width:1.0417;"/><line style="stroke:#EC7211;stroke-width:3.125;" x1="980.8512" x2="980.8512" y1="880.7109" y2="916.7358"/><polygon fill="#EC7211" points="976.6846,906.3192,980.8512,916.7358,985.0179,906.3192,980.8512,910.4858" style="stroke:#EC7211;stroke-width:1.0417;"/><line style="stroke:#EC7211;stroke-width:3.125;" x1="709.0719" x2="782.3273" y1="790.215" y2="790.215"/><polygon fill="#EC7211" points="771.9106,786.0484,782.3273,790.215,771.9106,794.3817,776.0773,790.215" style="stroke:#EC7211;stroke-width:1.0417;"/><line style="stroke:#EC7211;stroke-width:3.125;" x1="850.4344" x2="950.234" y1="790.215" y2="790.215"/><polygon fill="#EC7211" points="939.8173,786.0484,950.234,790.215,939.8173,794.3817,943.984,790.215" style="stroke:#EC7211;stroke-width:1.0417;"/><line style="stroke:#EC7211;stroke-width:3.125;" x1="830.4504" x2="830.4504" y1="756.5776" y2="761.7859"/><line style="stroke:#EC7211;stroke-width:3.125;" x1="830.4504" x2="639.9384" y1="761.7859" y2="761.7859"/><line style="stroke:#EC7211;stroke-width:3.125;" x1="639.9384" x2="639.9384" y1="761.7859" y2="777.4109"/><polygon fill="#EC7211" points="635.7717,766.9942,639.9384,777.4109,644.105,766.9942,639.9384,771.1609" style="stroke:#EC7211;stroke-width:1.0417;"/><line style="stroke:#EC7211;stroke-width:3.125;" x1="1011.4685" x2="1066.1285" y1="790.215" y2="790.215"/><line style="stroke:#EC7211;stroke-width:3.125;" x1="1066.1285" x2="1066.1285" y1="790.215" y2="862.6984"/><line style="stroke:#EC7211;stroke-width:3.125;" x1="1066.1285" x2="1066.1285" y1="862.6984" y2="916.7358"/><polygon fill="#EC7211" points="1061.9619,906.3192,1066.1285,916.7358,1070.2952,906.3192,1066.1285,910.4858" style="stroke:#EC7211;stroke-width:1.0417;"/><line style="stroke:#EC7211;stroke-width:3.125;" x1="639.9384" x2="1066.1285" y1="916.7358" y2="916.7358"/><line style="stroke:#EC7211;stroke-width:3.125;" x1="830.4504" x2="830.4504" y1="916.7358" y2="937.5692"/><polygon fill="#EC7211" points="826.2838,927.1525,830.4504,937.5692,834.6171,927.1525,830.4504,931.3192" style="stroke:#EC7211;stroke-width:1.0417;"/><line style="stroke:#EC7211;stroke-width:3.125;" x1="830.4504" x2="830.4504" y1="984.0108" y2="1004.8442"/><polygon fill="#EC7211" points="826.2838,994.4275,830.4504,1004.8442,834.6171,994.4275,830.4504,998.5942" style="stroke:#EC7211;stroke-width:1.0417;"/><line style="stroke:#EC7211;stroke-width:3.125;" x1="830.4504" x2="830.4504" y1="1270.3857" y2="1291.2191"/><polygon fill="#EC7211" points="826.2838,1280.8024,830.4504,1291.2191,834.6171,1280.8024,830.4504,1284.9691" style="stroke:#EC7211;stroke-width:1.0417;"/><line style="stroke:#EC7211;stroke-width:3.125;" x1="830.4504" x2="830.4504" y1="1352.8524" y2="1373.6857"/><polygon fill="#EC7211" points="826.2838,1363.269,830.4504,1373.6857,834.6171,1363.269,830.4504,1367.4357" style="stroke:#EC7211;stroke-width:1.0417;"/><line style="stroke:#EC7211;stroke-width:3.125;" x1="830.4504" x2="830.4504" y1="1821.4152" y2="1842.2485"/><polygon fill="#EC7211" points="826.2838,1831.8319,830.4504,1842.2485,834.6171,1831.8319,830.4504,1835.9985" style="stroke:#EC7211;stroke-width:1.0417;"/><line style="stroke:#EC7211;stroke-width:3.125;" x1="830.4504" x2="830.4504" y1="1888.6902" y2="1909.5235"/><polygon fill="#EC7211" points="826.2838,1899.1069,830.4504,1909.5235,834.6171,1899.1069,830.4504,1903.2735" style="stroke:#EC7211;stroke-width:1.0417;"/><line style="stroke:#EC7211;stroke-width:3.125;" x1="1202.6103" x2="1202.6103" y1="1078.3691" y2="1099.2025"/><polygon fill="#EC7211" points="1198.4436,1088.7858,1202.6103,1099.2025,1206.7769,1088.7858,1202.6103,1092.9525" style="stroke:#EC7211;stroke-width:1.0417;"/><line style="stroke:#EC7211;stroke-width:3.125;" x1="1390.1326" x2="1390.1326" y1="1078.3691" y2="1099.2025"/><polygon fill="#EC7211" points="1385.966,1088.7858,1390.1326,1099.2025,1394.2993,1088.7858,1390.1326,1092.9525" style="stroke:#EC7211;stroke-width:1.0417;"/><line style="stroke:#EC7211;stroke-width:3.125;" x1="1572.2412" x2="1572.2412" y1="1078.3691" y2="1099.2025"/><polygon fill="#EC7211" points="1568.0745,1088.7858,1572.2412,1099.2025,1576.4079,1088.7858,1572.2412,1092.9525" style="stroke:#EC7211;stroke-width:1.0417;"/><line style="stroke:#EC7211;stroke-width:3.125;" x1="1202.6103" x2="1202.6103" y1="1160.8358" y2="1181.6691"/><polygon fill="#EC7211" points="1198.4436,1171.2524,1202.6103,1181.6691,1206.7769,1171.2524,1202.6103,1175.4191" style="stroke:#EC7211;stroke-width:1.0417;"/><line style="stroke:#EC7211;stroke-width:3.125;" x1="1390.1326" x2="1390.1326" y1="1160.8358" y2="1181.6691"/><polygon fill="#EC7211" points="1385.966,1171.2524,1390.1326,1181.6691,1394.2993,1171.2524,1390.1326,1175.4191" style="stroke:#EC7211;stroke-width:1.0417;"/><line style="stroke:#EC7211;stroke-width:3.125;" x1="1572.2412" x2="1572.2412" y1="1160.8358" y2="1181.6691"/><polygon fill="#EC7211" points="1568.0745,1171.2524,1572.2412,1181.6691,1576.4079,1171.2524,1572.2412,1175.4191" style="stroke:#EC7211;stroke-width:1.0417;"/><line style="stroke:#EC7211;stroke-width:3.125;" x1="1786.8683" x2="1786.8683" y1="1481.7607" y2="1521.932"/><polygon fill="#EC7211" points="1782.7016,1511.5153,1786.8683,1521.932,1791.035,1511.5153,1786.8683,1515.682" style="stroke:#EC7211;stroke-width:1.0417;"/><line style="stroke:#EC7211;stroke-width:3.125;" x1="1786.8683" x2="1786.8683" y1="1583.5653" y2="1604.3986"/><polygon fill="#EC7211" points="1782.7016,1593.9819,1786.8683,1604.3986,1791.035,1593.9819,1786.8683,1598.1486" style="stroke:#EC7211;stroke-width:1.0417;"/><line style="stroke:#EC7211;stroke-width:3.125;" x1="1969.1162" x2="1969.1162" y1="1481.7607" y2="1521.932"/><polygon fill="#EC7211" points="1964.9495,1511.5153,1969.1162,1521.932,1973.2829,1511.5153,1969.1162,1515.682" style="stroke:#EC7211;stroke-width:1.0417;"/><line style="stroke:#EC7211;stroke-width:3.125;" x1="1969.1162" x2="1969.1162" y1="1583.5653" y2="1604.3986"/><polygon fill="#EC7211" points="1964.9495,1593.9819,1969.1162,1604.3986,1973.2829,1593.9819,1969.1162,1598.1486" style="stroke:#EC7211;stroke-width:1.0417;"/><line style="stroke:#EC7211;stroke-width:3.125;" x1="1876.6774" x2="1897.5108" y1="1468.9565" y2="1468.9565"/><polygon fill="#EC7211" points="1887.0941,1464.7898,1897.5108,1468.9565,1887.0941,1473.1232,1891.2608,1468.9565" style="stroke:#EC7211;stroke-width:1.0417;"/><line style="stroke:#EC7211;stroke-width:3.125;" x1="830.4504" x2="830.4504" y1="1435.319" y2="1440.5273"/><line style="stroke:#EC7211;stroke-width:3.125;" x1="830.4504" x2="1786.8683" y1="1440.5273" y2="1440.5273"/><line style="stroke:#EC7211;stroke-width:3.125;" x1="1786.8683" x2="1786.8683" y1="1440.5273" y2="1456.1523"/><polygon fill="#EC7211" points="1782.7016,1445.7357,1786.8683,1456.1523,1791.035,1445.7357,1786.8683,1449.9023" style="stroke:#EC7211;stroke-width:1.0417;"/><line style="stroke:#EC7211;stroke-width:3.125;" x1="2040.7216" x2="2060.7259" y1="1468.9565" y2="1468.9565"/><line style="stroke:#EC7211;stroke-width:3.125;" x1="2060.7259" x2="2060.7259" y1="1468.9565" y2="1542.7653"/><line style="stroke:#EC7211;stroke-width:3.125;" x1="2060.7259" x2="2060.7259" y1="1542.7653" y2="1604.3986"/><polygon fill="#EC7211" points="2056.5592,1593.9819,2060.7259,1604.3986,2064.8926,1593.9819,2060.7259,1598.1486" style="stroke:#EC7211;stroke-width:1.0417;"/><line style="stroke:#EC7211;stroke-width:3.125;" x1="1786.8683" x2="2060.7259" y1="1604.3986" y2="1604.3986"/><line style="stroke:#EC7211;stroke-width:3.125;" x1="1898.1634" x2="1898.1634" y1="1604.3986" y2="1625.2319"/><polygon fill="#EC7211" points="1893.9967,1614.8153,1898.1634,1625.2319,1902.33,1614.8153,1898.1634,1618.9819" style="stroke:#EC7211;stroke-width:1.0417;"/><line style="stroke:#EC7211;stroke-width:3.125;" x1="1898.1634" x2="1898.1634" y1="1686.8652" y2="1707.6986"/><polygon fill="#EC7211" points="1893.9967,1697.2819,1898.1634,1707.6986,1902.33,1697.2819,1898.1634,1701.4486" style="stroke:#EC7211;stroke-width:1.0417;"/><line style="stroke:#EC7211;stroke-width:3.125;" x1="128.5278" x2="128.5278" y1="285.6527" y2="290.861"/><line style="stroke:#EC7211;stroke-width:3.125;" x1="128.5278" x2="430.0435" y1="290.861" y2="290.861"/><line style="stroke:#EC7211;stroke-width:3.125;" x1="430.0435" x2="430.0435" y1="290.861" y2="306.486"/><polygon fill="#EC7211" points="425.8769,296.0693,430.0435,306.486,434.2102,296.0693,430.0435,300.236" style="stroke:#EC7211;stroke-width:1.0417;"/><line style="stroke:#EC7211;stroke-width:3.125;" x1="430.0435" x2="430.0435" y1="622.0276" y2="627.2359"/><line style="stroke:#EC7211;stroke-width:3.125;" x1="430.0435" x2="830.4504" y1="627.2359" y2="627.2359"/><line style="stroke:#EC7211;stroke-width:3.125;" x1="830.4504" x2="830.4504" y1="627.2359" y2="642.8609"/><polygon fill="#EC7211" points="826.2838,632.4443,830.4504,642.8609,834.6171,632.4443,830.4504,636.6109" style="stroke:#EC7211;stroke-width:1.0417;"/><line style="stroke:#EC7211;stroke-width:3.125;" x1="830.4504" x2="830.4504" y1="1051.2858" y2="1056.4941"/><line style="stroke:#EC7211;stroke-width:3.125;" x1="830.4504" x2="1384.7188" y1="1056.4941" y2="1056.4941"/><line style="stroke:#EC7211;stroke-width:3.125;" x1="1384.7188" x2="1384.7188" y1="1056.4941" y2="1072.1191"/><polygon fill="#EC7211" points="1380.5522,1061.7025,1384.7188,1072.1191,1388.8855,1061.7025,1384.7188,1065.8691" style="stroke:#EC7211;stroke-width:1.0417;"/><line style="stroke:#EC7211;stroke-width:3.125;" x1="1384.7188" x2="1384.7188" y1="1187.9191" y2="1193.1274"/><line style="stroke:#EC7211;stroke-width:3.125;" x1="1384.7188" x2="830.4504" y1="1193.1274" y2="1193.1274"/><line style="stroke:#EC7211;stroke-width:3.125;" x1="830.4504" x2="830.4504" y1="1193.1274" y2="1208.7524"/><polygon fill="#EC7211" points="826.2838,1198.3358,830.4504,1208.7524,834.6171,1198.3358,830.4504,1202.5024" style="stroke:#EC7211;stroke-width:1.0417;"/><line style="stroke:#EC7211;stroke-width:3.125;" x1="1898.1634" x2="1898.1634" y1="1754.1402" y2="1759.3486"/><line style="stroke:#EC7211;stroke-width:3.125;" x1="1898.1634" x2="830.4504" y1="1759.3486" y2="1759.3486"/><line style="stroke:#EC7211;stroke-width:3.125;" x1="830.4504" x2="830.4504" y1="1759.3486" y2="1774.9736"/><polygon fill="#EC7211" points="826.2838,1764.5569,830.4504,1774.9736,834.6171,1764.5569,830.4504,1768.7236" style="stroke:#EC7211;stroke-width:1.0417;"/><line style="stroke:#EC7211;stroke-width:3.125;" x1="830.4504" x2="830.4504" y1="1955.9652" y2="1961.1735"/><line style="stroke:#EC7211;stroke-width:3.125;" x1="830.4504" x2="430.0435" y1="1961.1735" y2="1961.1735"/><line style="stroke:#EC7211;stroke-width:3.125;" x1="430.0435" x2="430.0435" y1="1961.1735" y2="1976.7985"/><polygon fill="#EC7211" points="425.8769,1966.3818,430.0435,1976.7985,434.2102,1966.3818,430.0435,1970.5485" style="stroke:#EC7211;stroke-width:1.0417;"/><line style="stroke:#EC7211;stroke-width:3.125;" x1="430.0435" x2="430.0435" y1="2240.2568" y2="2245.4651"/><line style="stroke:#EC7211;stroke-width:3.125;" x1="430.0435" x2="128.5278" y1="2245.4651" y2="2245.4651"/><line style="stroke:#EC7211;stroke-width:3.125;" x1="128.5278" x2="128.5278" y1="2245.4651" y2="2261.0901"/><polygon fill="#EC7211" points="124.3612,2250.6734,128.5278,2261.0901,132.6945,2250.6734,128.5278,2254.8401" style="stroke:#EC7211;stroke-width:1.0417;"/><text fill="#EC7211" font-family="'Verdana'" font-size="12.5" lengthAdjust="spacing" textLength="170.6767" x="75.9649" y="86.8449">&#128100; User (Business Analyst)</text><text fill="#EC7211" font-family="'Verdana'" font-size="12.5" lengthAdjust="spacing" textLength="160.0952" x="348.9543" y="86.8449">Frontend (React - Vercel)</text><text fill="#EC7211" font-family="'Verdana'" font-size="12.5" lengthAdjust="spacing" textLength="201.0193" x="717.9616" y="86.8449">Backend (FastAPI + LangChain)</text><text fill="#EC7211" font-family="'Verdana'" font-size="12.5" lengthAdjust="spacing" textLength="191.3452" x="1288.0046" y="86.8449">Data Layer (Supabase + GCS)</text><text fill="#EC7211" font-family="'Verdana'" font-size="12.5" lengthAdjust="spacing" textLength="63.4888" x="1849.2315" y="86.8449">LLM Layer</text><!--SRC=[bLNDRYD54BxxAOf5YXn5bX4HYCG7vB_9BZAxJcOt4f8lbPdok9MUxg6xnuvNkN93GbmH20uy1C_32y0ZKDKp_bd88PniTTVFLz_tTSr7OKKb0Mvyppeq1NM22feWKGPDHZ2sbT8sG0-c9ky5s-CVIBJTm4Q55QGRLMeqv3kTnu-ddoVdIVBuzwy__WxlF3deZcgl-DB3qA3U-d3wsF41NUXSlgkqnRnjer33n6PrIIOiJ7S-IVhJXunqVvpUdWuwbqD_3zSr-Q2iWRL26A-G0r_4gky9hi_1qPfCJH0ScTo_60YUyNZw6UD9d3M1Jw5xGvZ9ABVak3g3kRoXZDIQOAbuvZfYudwtg5MEeJrUMbTYW1FmwZtnxKJvIkEs3OVAsSBnZ7oJIfUNRz_EKyRphG26OE4Eitk-aFiLyoP9oXJWAsKCkOXqT3wvOAIZ9XAw2VemdB-2CvYn9ZojClz1UmArSCnjt9PhJn-2a-a2FOG-WqTOEbj2tj8wwAWbT7SaGzXMzEKfiFW6XE_J3i2-X8XMm7pBvvyEEgGzIMvKf4sHw3awJuqBAZGv-aEeo1O39Muc97qOPdArP3OghG9aKPm0oZ1LsQeszyBa5J4reW2LTvGBNpuITN4n7ZDH4vblXblnM5fNU8SCvGoknYdJn7hTI-CqM4Tx0g2aWCBBmYW3-wGRqfFH8EO05inppCJrSMV6jZ1LiQQCAuBKaDH_9xMEjauLR6eTHLh8K5VM5gpNMDiw1m651KKI829zllpN8ZMqC2OZILyOHvhMoFFjkHlLIkSDhmyXkc1Xl2gLHhTdG-BcZYfaXjZ0PHMYH0kpyrJprivsPIBvNtmoIXZcRFPrm_rZzDJSgH8PbnpZ6hdDdJvuwy-VluDlo4T_nUVHTWjsOLxMHI5EIv0N3SzxC522Mikp0KEKKtwezjDlV_tn0-okdwpwfY8pVDNMQvosTzDolsuKKrAiWb-O4y2ud9HmSaEXTWPyS7N6_oZdX-mhQqJkvmirTpQJhIUK7F8lXtc-Tw6i4rlp6kA0fNHEcYtpLVhczOSz_ySM4oX7_PeNoeyErhk59gtZc2PddNSajDfdArxDlXz4GDyl75OhVxJlMhn75dhkpkT-QqMR8_gFA9VblhIQFoczkjfRppSBAyMW_59Hkq5uk5e7_vIxVB1Lz0-V_l8zlBRH74yNtndZ7m00]--></g></svg>