<svg xmlns="http://www.w3.org/2000/svg" xmlns:xlink="http://www.w3.org/1999/xlink" contentStyleType="text/css" data-diagram-type="ACTIVITY" height="2078px" preserveAspectRatio="none" style="width:1828px;height:2078px;background:#FFFFFF;" version="1.1" viewBox="0 0 1828 2078" width="1828px" zoomAndPan="magnify"><title>Finance Copilot - End-to-End Flow with Swimlanes</title><defs/><g><g class="title" data-source-line="1"><text fill="#000000" font-family="sans-serif" font-size="14" font-weight="bold" lengthAdjust="spacing" textLength="371.0752" x="727.4076" y="33.5352">Finance Copilot - End-to-End Flow with Swimlanes</text></g><rect fill="none" height="21.1992" style="stroke:none;stroke-width:1;" width="1795.8904" x="15" y="49.7852"/><rect fill="#ADD8E6" height="2016.8135" style="stroke:#ADD8E6;stroke-width:1;" width="242.8369" x="15" y="49.7852"/><ellipse cx="114.0977" cy="85.9844" fill="#222222" rx="10" ry="10" style="stroke:#222222;stroke-width:1;"/><rect fill="#F1F1F1" height="48.2656" rx="12.5" ry="12.5" style="stroke:#181818;stroke-width:0.5;" width="179.3926" x="24.4014" y="115.9844"/><text fill="#000000" font-family="sans-serif" font-size="12" lengthAdjust="spacing" textLength="159.3926" x="34.4014" y="137.5859">Upload Financial Document</text><text fill="#000000" font-family="sans-serif" font-size="12" lengthAdjust="spacing" textLength="95.2207" x="34.4014" y="151.7188">(PDF/Excel/CSV)</text><rect fill="#F1F1F1" height="48.2656" rx="12.5" ry="12.5" style="stroke:#181818;stroke-width:0.5;" width="186.1953" x="21" y="184.25"/><text fill="#000000" font-family="sans-serif" font-size="12" lengthAdjust="spacing" textLength="128.3203" x="31" y="205.8516">Ask Question via Chat</text><text fill="#000000" font-family="sans-serif" font-size="12" lengthAdjust="spacing" textLength="166.1953" x="31" y="219.9844">"Analyze Q3 revenue trends"</text><rect fill="#F1F1F1" height="34.1328" rx="12.5" ry="12.5" style="stroke:#181818;stroke-width:0.5;" width="162.7344" x="32.7305" y="1855.7227"/><text fill="#000000" font-family="sans-serif" font-size="12" lengthAdjust="spacing" textLength="142.7344" x="42.7305" y="1877.3242">Review financial analysis</text><rect fill="#F1F1F1" height="34.1328" rx="12.5" ry="12.5" style="stroke:#181818;stroke-width:0.5;" width="162.9805" x="32.6074" y="1909.8555"/><text fill="#000000" font-family="sans-serif" font-size="12" lengthAdjust="spacing" textLength="142.9805" x="42.6074" y="1931.457">Ask follow-up questions</text><rect fill="#F1F1F1" height="34.1328" rx="12.5" ry="12.5" style="stroke:#181818;stroke-width:0.5;" width="156.8633" x="35.666" y="2012.4658"/><text fill="#000000" font-family="sans-serif" font-size="12" lengthAdjust="spacing" textLength="136.8633" x="45.666" y="2034.0674">Ask follow-up question</text><polygon fill="#F1F1F1" points="56.4282,1963.9883,171.7671,1963.9883,183.7671,1975.9883,171.7671,1987.9883,56.4282,1987.9883,44.4282,1975.9883,56.4282,1963.9883" style="stroke:#181818;stroke-width:0.5;"/><text fill="#000000" font-family="sans-serif" font-size="11" lengthAdjust="spacing" textLength="33.3638" x="118.0977" y="1998.623">&#10060; No</text><text fill="#000000" font-family="sans-serif" font-size="11" lengthAdjust="spacing" textLength="115.3389" x="56.4282" y="1980.1455">Satisfied with results?</text><text fill="#000000" font-family="sans-serif" font-size="11" lengthAdjust="spacing" textLength="37.0698" x="183.7671" y="1973.668">&#9989; Yes</text><ellipse cx="242.8369" cy="1975.9883" fill="none" rx="11" ry="11" style="stroke:#222222;stroke-width:1;"/><ellipse cx="242.8369" cy="1975.9883" fill="#222222" rx="6" ry="6" style="stroke:#222222;stroke-width:1;"/><line style="stroke:#000000;stroke-width:1.5;" x1="15" x2="15" y1="49.7852" y2="2066.5986"/><rect fill="#90EE90" height="2016.8135" style="stroke:#90EE90;stroke-width:1;" width="228.6279" x="257.8369" y="49.7852"/><rect fill="#F1F1F1" height="34.1328" rx="12.5" ry="12.5" style="stroke:#181818;stroke-width:0.5;" width="129.1191" x="308.5913" y="252.5156"/><text fill="#000000" font-family="sans-serif" font-size="12" lengthAdjust="spacing" textLength="109.1191" x="318.5913" y="274.1172">Receive file upload</text><rect fill="#F1F1F1" height="34.1328" rx="12.5" ry="12.5" style="stroke:#181818;stroke-width:0.5;" width="170.5156" x="287.8931" y="306.6484"/><text fill="#000000" font-family="sans-serif" font-size="12" lengthAdjust="spacing" textLength="150.5156" x="297.8931" y="328.25">Validate file format &amp; size</text><rect fill="#F1F1F1" height="34.1328" rx="12.5" ry="12.5" style="stroke:#181818;stroke-width:0.5;" width="161.252" x="292.5249" y="360.7813"/><text fill="#000000" font-family="sans-serif" font-size="12" lengthAdjust="spacing" textLength="141.252" x="302.5249" y="382.3828">Display upload progress</text><rect fill="#F1F1F1" height="34.1328" rx="12.5" ry="12.5" style="stroke:#181818;stroke-width:0.5;" width="205.1973" x="270.5522" y="414.9141"/><text fill="#000000" font-family="sans-serif" font-size="12" lengthAdjust="spacing" textLength="185.1973" x="280.5522" y="436.5156">Send HTTPS request to backend</text><rect fill="#F1F1F1" height="34.1328" rx="12.5" ry="12.5" style="stroke:#181818;stroke-width:0.5;" width="145.168" x="300.5669" y="469.0469"/><text fill="#000000" font-family="sans-serif" font-size="12" lengthAdjust="spacing" textLength="125.168" x="310.5669" y="490.6484">Show loading spinner</text><rect fill="#F1F1F1" height="34.1328" rx="12.5" ry="12.5" style="stroke:#181818;stroke-width:0.5;" width="142.3203" x="301.9907" y="1625.0586"/><text fill="#000000" font-family="sans-serif" font-size="12" lengthAdjust="spacing" textLength="122.3203" x="311.9907" y="1646.6602">Receive API response</text><rect fill="#F1F1F1" height="34.1328" rx="12.5" ry="12.5" style="stroke:#181818;stroke-width:0.5;" width="154.4141" x="295.9438" y="1679.1914"/><text fill="#000000" font-family="sans-serif" font-size="12" lengthAdjust="spacing" textLength="134.4141" x="305.9438" y="1700.793">Parse and validate data</text><rect fill="#F1F1F1" height="48.2656" rx="12.5" ry="12.5" style="stroke:#181818;stroke-width:0.5;" width="143.3984" x="301.4517" y="1733.3242"/><text fill="#000000" font-family="sans-serif" font-size="12" lengthAdjust="spacing" textLength="119.1504" x="311.4517" y="1754.9258">Render insights with</text><text fill="#000000" font-family="sans-serif" font-size="12" lengthAdjust="spacing" textLength="123.3984" x="311.4517" y="1769.0586">charts/tables/graphs</text><rect fill="#F1F1F1" height="34.1328" rx="12.5" ry="12.5" style="stroke:#181818;stroke-width:0.5;" width="173.2227" x="286.5396" y="1801.5898"/><text fill="#000000" font-family="sans-serif" font-size="12" lengthAdjust="spacing" textLength="153.2227" x="296.5396" y="1823.1914">Display source documents</text><line style="stroke:#000000;stroke-width:1.5;" x1="257.8369" x2="257.8369" y1="49.7852" y2="2066.5986"/><rect fill="#FFA500" height="2016.8135" style="stroke:#FFA500;stroke-width:1;" width="468.8828" x="486.4648" y="49.7852"/><rect fill="#F1F1F1" height="34.1328" rx="12.5" ry="12.5" style="stroke:#181818;stroke-width:0.5;" width="163.0859" x="650.8633" y="523.1797"/><text fill="#000000" font-family="sans-serif" font-size="12" lengthAdjust="spacing" textLength="143.0859" x="660.8633" y="544.7813">Receive file &amp; user query</text><rect fill="#F1F1F1" height="34.1328" rx="12.5" ry="12.5" style="stroke:#181818;stroke-width:0.5;" width="212.7617" x="626.0254" y="577.3125"/><text fill="#000000" font-family="sans-serif" font-size="12" lengthAdjust="spacing" textLength="192.7617" x="636.0254" y="598.9141">Extract text/data from document</text><polygon fill="#F1F1F1" points="520.8623,631.4453,606.6924,631.4453,618.6924,643.4453,606.6924,655.4453,520.8623,655.4453,508.8623,643.4453,520.8623,631.4453" style="stroke:#181818;stroke-width:0.5;"/><text fill="#000000" font-family="sans-serif" font-size="11" lengthAdjust="spacing" textLength="20.2168" x="567.7773" y="666.0801">PDF</text><text fill="#000000" font-family="sans-serif" font-size="11" lengthAdjust="spacing" textLength="85.8301" x="520.8623" y="647.6025">Document type?</text><rect fill="#F1F1F1" height="34.1328" rx="12.5" ry="12.5" style="stroke:#181818;stroke-width:0.5;" width="142.625" x="492.4648" y="688.4004"/><text fill="#000000" font-family="sans-serif" font-size="12" lengthAdjust="spacing" textLength="122.625" x="502.4648" y="710.002">Extract using PyPDF2</text><polygon fill="#F1F1F1" points="703.835,631.4453,731.4854,631.4453,743.4854,643.4453,731.4854,655.4453,703.835,655.4453,691.835,643.4453,703.835,631.4453" style="stroke:#181818;stroke-width:0.5;"/><text fill="#000000" font-family="sans-serif" font-size="11" lengthAdjust="spacing" textLength="27.6504" x="703.835" y="647.6025">Excel</text><rect fill="#F1F1F1" height="34.1328" rx="12.5" ry="12.5" style="stroke:#181818;stroke-width:0.5;" width="125.1406" x="655.0898" y="675.4453"/><text fill="#000000" font-family="sans-serif" font-size="12" lengthAdjust="spacing" textLength="105.1406" x="665.0898" y="697.0469">Parse with pandas</text><polygon fill="#F1F1F1" points="849.2891,631.4453,873.2891,631.4453,885.2891,643.4453,873.2891,655.4453,849.2891,655.4453,837.2891,643.4453,849.2891,631.4453" style="stroke:#181818;stroke-width:0.5;"/><text fill="#000000" font-family="sans-serif" font-size="11" lengthAdjust="spacing" textLength="20.7271" x="850.9255" y="647.6025">CSV</text><rect fill="#F1F1F1" height="34.1328" rx="12.5" ry="12.5" style="stroke:#181818;stroke-width:0.5;" width="122.1172" x="800.2305" y="675.4453"/><text fill="#000000" font-family="sans-serif" font-size="12" lengthAdjust="spacing" textLength="102.1172" x="810.2305" y="697.0469">Load with pandas</text><rect fill="#F1F1F1" height="34.1328" rx="12.5" ry="12.5" style="stroke:#181818;stroke-width:0.5;" width="165.3008" x="649.7559" y="762.5332"/><text fill="#000000" font-family="sans-serif" font-size="12" lengthAdjust="spacing" textLength="145.3008" x="659.7559" y="784.1348">Split content into chunks</text><rect fill="#F1F1F1" height="34.1328" rx="12.5" ry="12.5" style="stroke:#181818;stroke-width:0.5;" width="147.7461" x="658.5332" y="816.666"/><text fill="#000000" font-family="sans-serif" font-size="12" lengthAdjust="spacing" textLength="127.7461" x="668.5332" y="838.2676">Generate embeddings</text><rect fill="#F1F1F1" height="48.2656" rx="12.5" ry="12.5" style="stroke:#181818;stroke-width:0.5;" width="134.4219" x="665.1953" y="991.0645"/><text fill="#000000" font-family="sans-serif" font-size="12" lengthAdjust="spacing" textLength="114.4219" x="675.1953" y="1012.666">Query vector DB for</text><text fill="#000000" font-family="sans-serif" font-size="12" lengthAdjust="spacing" textLength="91.9395" x="675.1953" y="1026.7988">relevant chunks</text><rect fill="#F1F1F1" height="48.2656" rx="12.5" ry="12.5" style="stroke:#181818;stroke-width:0.5;" width="128.3164" x="668.248" y="1059.3301"/><text fill="#000000" font-family="sans-serif" font-size="12" lengthAdjust="spacing" textLength="108.3164" x="678.248" y="1080.9316">Build context from</text><text fill="#000000" font-family="sans-serif" font-size="12" lengthAdjust="spacing" textLength="107.5195" x="678.248" y="1095.0645">similar documents</text><rect fill="#F1F1F1" height="48.2656" rx="12.5" ry="12.5" style="stroke:#181818;stroke-width:0.5;" width="160.6543" x="652.0791" y="1127.5957"/><text fill="#000000" font-family="sans-serif" font-size="12" lengthAdjust="spacing" textLength="119.3262" x="662.0791" y="1149.1973">Prepare prompt with</text><text fill="#000000" font-family="sans-serif" font-size="12" lengthAdjust="spacing" textLength="140.6543" x="662.0791" y="1163.3301">user question + context</text><rect fill="#F1F1F1" height="34.1328" rx="12.5" ry="12.5" style="stroke:#181818;stroke-width:0.5;" width="147.5938" x="658.6094" y="1462.6602"/><text fill="#000000" font-family="sans-serif" font-size="12" lengthAdjust="spacing" textLength="127.5938" x="668.6094" y="1484.2617">Process LLM response</text><rect fill="#F1F1F1" height="34.1328" rx="12.5" ry="12.5" style="stroke:#181818;stroke-width:0.5;" width="182.041" x="641.3857" y="1516.793"/><text fill="#000000" font-family="sans-serif" font-size="12" lengthAdjust="spacing" textLength="162.041" x="651.3857" y="1538.3945">Add metadata &amp; source refs</text><rect fill="#F1F1F1" height="34.1328" rx="12.5" ry="12.5" style="stroke:#181818;stroke-width:0.5;" width="149.8965" x="657.458" y="1570.9258"/><text fill="#000000" font-family="sans-serif" font-size="12" lengthAdjust="spacing" textLength="129.8965" x="667.458" y="1592.5273">Format JSON response</text><line style="stroke:#000000;stroke-width:1.5;" x1="486.4648" x2="486.4648" y1="49.7852" y2="2066.5986"/><rect fill="#E0FFFF" height="2016.8135" style="stroke:#E0FFFF;stroke-width:1;" width="522.8672" x="955.3477" y="49.7852"/><rect fill="#555555" height="6" rx="2.5" ry="2.5" style="stroke:#555555;stroke-width:1;" width="512.8672" x="961.3477" y="870.7988"/><rect fill="#F1F1F1" height="48.2656" rx="12.5" ry="12.5" style="stroke:#181818;stroke-width:0.5;" width="170.1523" x="973.3477" y="896.7988"/><text fill="#000000" font-family="sans-serif" font-size="12" lengthAdjust="spacing" textLength="150.1523" x="983.3477" y="918.4004">Store document metadata</text><text fill="#000000" font-family="sans-serif" font-size="12" lengthAdjust="spacing" textLength="107.2148" x="983.3477" y="932.5332">in Supabase RelDB</text><rect fill="#F1F1F1" height="48.2656" rx="12.5" ry="12.5" style="stroke:#181818;stroke-width:0.5;" width="136.2441" x="1153.5" y="896.7988"/><text fill="#000000" font-family="sans-serif" font-size="12" lengthAdjust="spacing" textLength="116.2441" x="1163.5" y="918.4004">Save embeddings in</text><text fill="#000000" font-family="sans-serif" font-size="12" lengthAdjust="spacing" textLength="106.9219" x="1163.5" y="932.5332">pgvector database</text><rect fill="#F1F1F1" height="48.2656" rx="12.5" ry="12.5" style="stroke:#181818;stroke-width:0.5;" width="162.4707" x="1299.7441" y="896.7988"/><text fill="#000000" font-family="sans-serif" font-size="12" lengthAdjust="spacing" textLength="110.7598" x="1309.7441" y="918.4004">Upload original file</text><text fill="#000000" font-family="sans-serif" font-size="12" lengthAdjust="spacing" textLength="142.4707" x="1309.7441" y="932.5332">to Google Cloud Storage</text><rect fill="#555555" height="6" rx="2.5" ry="2.5" style="stroke:#555555;stroke-width:1;" width="512.8672" x="961.3477" y="965.0645"/><line style="stroke:#000000;stroke-width:1.5;" x1="955.3477" x2="955.3477" y1="49.7852" y2="2066.5986"/><rect fill="#800080" height="2016.8135" style="stroke:#800080;stroke-width:1;" width="330.8279" x="1478.2148" y="49.7852"/><polygon fill="#F1F1F1" points="1505.2148,1195.8613,1624.8828,1195.8613,1636.8828,1207.8613,1624.8828,1219.8613,1505.2148,1219.8613,1493.2148,1207.8613,1505.2148,1195.8613" style="stroke:#181818;stroke-width:0.5;"/><text fill="#000000" font-family="sans-serif" font-size="11" lengthAdjust="spacing" textLength="37.0698" x="1569.0488" y="1230.4961">&#9989; Yes</text><text fill="#000000" font-family="sans-serif" font-size="11" lengthAdjust="spacing" textLength="119.668" x="1505.2148" y="1212.0186">Primary LLM available?</text><rect fill="#F1F1F1" height="48.2656" rx="12.5" ry="12.5" style="stroke:#181818;stroke-width:0.5;" width="121.4844" x="1504.3066" y="1251.9961"/><text fill="#000000" font-family="sans-serif" font-size="12" lengthAdjust="spacing" textLength="90.6797" x="1514.3066" y="1273.5977">Send prompt to</text><text fill="#000000" font-family="sans-serif" font-size="12" lengthAdjust="spacing" textLength="101.4844" x="1514.3066" y="1287.7305">Hugging Face API</text><polygon fill="#F1F1F1" points="1668.8828,1195.8613,1759.4556,1195.8613,1771.4556,1207.8613,1759.4556,1219.8613,1668.8828,1219.8613,1656.8828,1207.8613,1668.8828,1195.8613" style="stroke:#181818;stroke-width:0.5;"/><text fill="#000000" font-family="sans-serif" font-size="11" lengthAdjust="spacing" textLength="57.8735" x="1718.1692" y="1230.4961">&#9888;&#65039; Fallback</text><text fill="#000000" font-family="sans-serif" font-size="11" lengthAdjust="spacing" textLength="90.5728" x="1668.8828" y="1212.0186">Fallback needed?</text><rect fill="#F1F1F1" height="48.2656" rx="12.5" ry="12.5" style="stroke:#181818;stroke-width:0.5;" width="110.6797" x="1658.8293" y="1251.9961"/><text fill="#000000" font-family="sans-serif" font-size="12" lengthAdjust="spacing" textLength="90.6797" x="1668.8293" y="1273.5977">Send prompt to</text><text fill="#000000" font-family="sans-serif" font-size="12" lengthAdjust="spacing" textLength="64.9102" x="1668.8293" y="1287.7305">OpenAI API</text><rect fill="#F1F1F1" height="48.2656" rx="12.5" ry="12.5" style="stroke:#181818;stroke-width:0.5;" width="174.9453" x="1570.1561" y="1340.2617"/><text fill="#000000" font-family="sans-serif" font-size="12" lengthAdjust="spacing" textLength="154.9453" x="1580.1561" y="1361.8633">Generate financial insights</text><text fill="#000000" font-family="sans-serif" font-size="12" lengthAdjust="spacing" textLength="58.3066" x="1580.1561" y="1375.9961">&amp; analysis</text><rect fill="#F1F1F1" height="34.1328" rx="12.5" ry="12.5" style="stroke:#181818;stroke-width:0.5;" width="179.2402" x="1568.0087" y="1408.5273"/><text fill="#000000" font-family="sans-serif" font-size="12" lengthAdjust="spacing" textLength="159.2402" x="1578.0087" y="1430.1289">Return structured response</text><line style="stroke:#000000;stroke-width:1.5;" x1="1478.2148" x2="1478.2148" y1="49.7852" y2="2066.5986"/><line style="stroke:#000000;stroke-width:1.5;" x1="1809.0427" x2="1809.0427" y1="49.7852" y2="2066.5986"/><line style="stroke:#181818;stroke-width:1;" x1="114.0977" x2="114.0977" y1="95.9844" y2="115.9844"/><polygon fill="#181818" points="110.0977,105.9844,114.0977,115.9844,118.0977,105.9844,114.0977,109.9844" style="stroke:#181818;stroke-width:1;"/><line style="stroke:#181818;stroke-width:1;" x1="114.0977" x2="114.0977" y1="164.25" y2="184.25"/><polygon fill="#181818" points="110.0977,174.25,114.0977,184.25,118.0977,174.25,114.0977,178.25" style="stroke:#181818;stroke-width:1;"/><line style="stroke:#181818;stroke-width:1;" x1="114.0977" x2="114.0977" y1="1889.8555" y2="1909.8555"/><polygon fill="#181818" points="110.0977,1899.8555,114.0977,1909.8555,118.0977,1899.8555,114.0977,1903.8555" style="stroke:#181818;stroke-width:1;"/><line style="stroke:#181818;stroke-width:1;" x1="114.0977" x2="114.0977" y1="1987.9883" y2="2012.4658"/><polygon fill="#181818" points="110.0977,2002.4658,114.0977,2012.4658,118.0977,2002.4658,114.0977,2006.4658" style="stroke:#181818;stroke-width:1;"/><line style="stroke:#181818;stroke-width:1;" x1="183.7671" x2="231.8369" y1="1975.9883" y2="1975.9883"/><polygon fill="#181818" points="221.8369,1971.9883,231.8369,1975.9883,221.8369,1979.9883,225.8369,1975.9883" style="stroke:#181818;stroke-width:1;"/><line style="stroke:#181818;stroke-width:1;" x1="114.0977" x2="114.0977" y1="2046.5986" y2="2066.5986"/><polygon fill="#181818" points="110.0977,2056.5986,114.0977,2066.5986,118.0977,2056.5986,114.0977,2060.5986" style="stroke:#181818;stroke-width:1;"/><line style="stroke:#181818;stroke-width:1;" x1="114.0977" x2="114.0977" y1="1943.9883" y2="1963.9883"/><polygon fill="#181818" points="110.0977,1953.9883,114.0977,1963.9883,118.0977,1953.9883,114.0977,1957.9883" style="stroke:#181818;stroke-width:1;"/><line style="stroke:#181818;stroke-width:1;" x1="373.1509" x2="373.1509" y1="286.6484" y2="306.6484"/><polygon fill="#181818" points="369.1509,296.6484,373.1509,306.6484,377.1509,296.6484,373.1509,300.6484" style="stroke:#181818;stroke-width:1;"/><line style="stroke:#181818;stroke-width:1;" x1="373.1509" x2="373.1509" y1="340.7813" y2="360.7813"/><polygon fill="#181818" points="369.1509,350.7813,373.1509,360.7813,377.1509,350.7813,373.1509,354.7813" style="stroke:#181818;stroke-width:1;"/><line style="stroke:#181818;stroke-width:1;" x1="373.1509" x2="373.1509" y1="394.9141" y2="414.9141"/><polygon fill="#181818" points="369.1509,404.9141,373.1509,414.9141,377.1509,404.9141,373.1509,408.9141" style="stroke:#181818;stroke-width:1;"/><line style="stroke:#181818;stroke-width:1;" x1="373.1509" x2="373.1509" y1="449.0469" y2="469.0469"/><polygon fill="#181818" points="369.1509,459.0469,373.1509,469.0469,377.1509,459.0469,373.1509,463.0469" style="stroke:#181818;stroke-width:1;"/><line style="stroke:#181818;stroke-width:1;" x1="373.1509" x2="373.1509" y1="1659.1914" y2="1679.1914"/><polygon fill="#181818" points="369.1509,1669.1914,373.1509,1679.1914,377.1509,1669.1914,373.1509,1673.1914" style="stroke:#181818;stroke-width:1;"/><line style="stroke:#181818;stroke-width:1;" x1="373.1509" x2="373.1509" y1="1713.3242" y2="1733.3242"/><polygon fill="#181818" points="369.1509,1723.3242,373.1509,1733.3242,377.1509,1723.3242,373.1509,1727.3242" style="stroke:#181818;stroke-width:1;"/><line style="stroke:#181818;stroke-width:1;" x1="373.1509" x2="373.1509" y1="1781.5898" y2="1801.5898"/><polygon fill="#181818" points="369.1509,1791.5898,373.1509,1801.5898,377.1509,1791.5898,373.1509,1795.5898" style="stroke:#181818;stroke-width:1;"/><line style="stroke:#181818;stroke-width:1;" x1="732.4063" x2="732.4063" y1="557.3125" y2="577.3125"/><polygon fill="#181818" points="728.4063,567.3125,732.4063,577.3125,736.4063,567.3125,732.4063,571.3125" style="stroke:#181818;stroke-width:1;"/><line style="stroke:#181818;stroke-width:1;" x1="563.7773" x2="563.7773" y1="655.4453" y2="688.4004"/><polygon fill="#181818" points="559.7773,678.4004,563.7773,688.4004,567.7773,678.4004,563.7773,682.4004" style="stroke:#181818;stroke-width:1;"/><line style="stroke:#181818;stroke-width:1;" x1="563.7773" x2="563.7773" y1="722.5332" y2="742.5332"/><polygon fill="#181818" points="559.7773,732.5332,563.7773,742.5332,567.7773,732.5332,563.7773,736.5332" style="stroke:#181818;stroke-width:1;"/><line style="stroke:#181818;stroke-width:1;" x1="717.6602" x2="717.6602" y1="655.4453" y2="675.4453"/><polygon fill="#181818" points="713.6602,665.4453,717.6602,675.4453,721.6602,665.4453,717.6602,669.4453" style="stroke:#181818;stroke-width:1;"/><line style="stroke:#181818;stroke-width:1;" x1="717.6602" x2="717.6602" y1="709.5781" y2="742.5332"/><polygon fill="#181818" points="713.6602,732.5332,717.6602,742.5332,721.6602,732.5332,717.6602,736.5332" style="stroke:#181818;stroke-width:1;"/><line style="stroke:#181818;stroke-width:1;" x1="861.2891" x2="861.2891" y1="655.4453" y2="675.4453"/><polygon fill="#181818" points="857.2891,665.4453,861.2891,675.4453,865.2891,665.4453,861.2891,669.4453" style="stroke:#181818;stroke-width:1;"/><line style="stroke:#181818;stroke-width:1;" x1="861.2891" x2="861.2891" y1="709.5781" y2="742.5332"/><polygon fill="#181818" points="857.2891,732.5332,861.2891,742.5332,865.2891,732.5332,861.2891,736.5332" style="stroke:#181818;stroke-width:1;"/><line style="stroke:#181818;stroke-width:1;" x1="618.6924" x2="691.835" y1="643.4453" y2="643.4453"/><polygon fill="#181818" points="681.835,639.4453,691.835,643.4453,681.835,647.4453,685.835,643.4453" style="stroke:#181818;stroke-width:1;"/><line style="stroke:#181818;stroke-width:1;" x1="743.4854" x2="837.2891" y1="643.4453" y2="643.4453"/><polygon fill="#181818" points="827.2891,639.4453,837.2891,643.4453,827.2891,647.4453,831.2891,643.4453" style="stroke:#181818;stroke-width:1;"/><line style="stroke:#181818;stroke-width:1;" x1="732.4063" x2="732.4063" y1="611.4453" y2="616.4453"/><line style="stroke:#181818;stroke-width:1;" x1="732.4063" x2="563.7773" y1="616.4453" y2="616.4453"/><line style="stroke:#181818;stroke-width:1;" x1="563.7773" x2="563.7773" y1="616.4453" y2="631.4453"/><polygon fill="#181818" points="559.7773,621.4453,563.7773,631.4453,567.7773,621.4453,563.7773,625.4453" style="stroke:#181818;stroke-width:1;"/><line style="stroke:#181818;stroke-width:1;" x1="885.2891" x2="936.3477" y1="643.4453" y2="643.4453"/><line style="stroke:#181818;stroke-width:1;" x1="936.3477" x2="936.3477" y1="643.4453" y2="742.5332"/><polygon fill="#181818" points="932.3477,732.5332,936.3477,742.5332,940.3477,732.5332,936.3477,736.5332" style="stroke:#181818;stroke-width:1;"/><line style="stroke:#181818;stroke-width:1;" x1="563.7773" x2="936.3477" y1="742.5332" y2="742.5332"/><line style="stroke:#181818;stroke-width:1;" x1="732.4063" x2="732.4063" y1="742.5332" y2="762.5332"/><polygon fill="#181818" points="728.4063,752.5332,732.4063,762.5332,736.4063,752.5332,732.4063,756.5332" style="stroke:#181818;stroke-width:1;"/><line style="stroke:#181818;stroke-width:1;" x1="732.4063" x2="732.4063" y1="796.666" y2="816.666"/><polygon fill="#181818" points="728.4063,806.666,732.4063,816.666,736.4063,806.666,732.4063,810.666" style="stroke:#181818;stroke-width:1;"/><line style="stroke:#181818;stroke-width:1;" x1="732.4063" x2="732.4063" y1="1039.3301" y2="1059.3301"/><polygon fill="#181818" points="728.4063,1049.3301,732.4063,1059.3301,736.4063,1049.3301,732.4063,1053.3301" style="stroke:#181818;stroke-width:1;"/><line style="stroke:#181818;stroke-width:1;" x1="732.4063" x2="732.4063" y1="1107.5957" y2="1127.5957"/><polygon fill="#181818" points="728.4063,1117.5957,732.4063,1127.5957,736.4063,1117.5957,732.4063,1121.5957" style="stroke:#181818;stroke-width:1;"/><line style="stroke:#181818;stroke-width:1;" x1="732.4063" x2="732.4063" y1="1496.793" y2="1516.793"/><polygon fill="#181818" points="728.4063,1506.793,732.4063,1516.793,736.4063,1506.793,732.4063,1510.793" style="stroke:#181818;stroke-width:1;"/><line style="stroke:#181818;stroke-width:1;" x1="732.4063" x2="732.4063" y1="1550.9258" y2="1570.9258"/><polygon fill="#181818" points="728.4063,1560.9258,732.4063,1570.9258,736.4063,1560.9258,732.4063,1564.9258" style="stroke:#181818;stroke-width:1;"/><line style="stroke:#181818;stroke-width:1;" x1="1058.4238" x2="1058.4238" y1="876.7988" y2="896.7988"/><polygon fill="#181818" points="1054.4238,886.7988,1058.4238,896.7988,1062.4238,886.7988,1058.4238,890.7988" style="stroke:#181818;stroke-width:1;"/><line style="stroke:#181818;stroke-width:1;" x1="1221.6221" x2="1221.6221" y1="876.7988" y2="896.7988"/><polygon fill="#181818" points="1217.6221,886.7988,1221.6221,896.7988,1225.6221,886.7988,1221.6221,890.7988" style="stroke:#181818;stroke-width:1;"/><line style="stroke:#181818;stroke-width:1;" x1="1380.9795" x2="1380.9795" y1="876.7988" y2="896.7988"/><polygon fill="#181818" points="1376.9795,886.7988,1380.9795,896.7988,1384.9795,886.7988,1380.9795,890.7988" style="stroke:#181818;stroke-width:1;"/><line style="stroke:#181818;stroke-width:1;" x1="1058.4238" x2="1058.4238" y1="945.0645" y2="965.0645"/><polygon fill="#181818" points="1054.4238,955.0645,1058.4238,965.0645,1062.4238,955.0645,1058.4238,959.0645" style="stroke:#181818;stroke-width:1;"/><line style="stroke:#181818;stroke-width:1;" x1="1221.6221" x2="1221.6221" y1="945.0645" y2="965.0645"/><polygon fill="#181818" points="1217.6221,955.0645,1221.6221,965.0645,1225.6221,955.0645,1221.6221,959.0645" style="stroke:#181818;stroke-width:1;"/><line style="stroke:#181818;stroke-width:1;" x1="1380.9795" x2="1380.9795" y1="945.0645" y2="965.0645"/><polygon fill="#181818" points="1376.9795,955.0645,1380.9795,965.0645,1384.9795,955.0645,1380.9795,959.0645" style="stroke:#181818;stroke-width:1;"/><line style="stroke:#181818;stroke-width:1;" x1="1565.0488" x2="1565.0488" y1="1219.8613" y2="1251.9961"/><polygon fill="#181818" points="1561.0488,1241.9961,1565.0488,1251.9961,1569.0488,1241.9961,1565.0488,1245.9961" style="stroke:#181818;stroke-width:1;"/><line style="stroke:#181818;stroke-width:1;" x1="1565.0488" x2="1565.0488" y1="1300.2617" y2="1320.2617"/><polygon fill="#181818" points="1561.0488,1310.2617,1565.0488,1320.2617,1569.0488,1310.2617,1565.0488,1314.2617" style="stroke:#181818;stroke-width:1;"/><line style="stroke:#181818;stroke-width:1;" x1="1714.1692" x2="1714.1692" y1="1219.8613" y2="1251.9961"/><polygon fill="#181818" points="1710.1692,1241.9961,1714.1692,1251.9961,1718.1692,1241.9961,1714.1692,1245.9961" style="stroke:#181818;stroke-width:1;"/><line style="stroke:#181818;stroke-width:1;" x1="1714.1692" x2="1714.1692" y1="1300.2617" y2="1320.2617"/><polygon fill="#181818" points="1710.1692,1310.2617,1714.1692,1320.2617,1718.1692,1310.2617,1714.1692,1314.2617" style="stroke:#181818;stroke-width:1;"/><line style="stroke:#181818;stroke-width:1;" x1="1636.8828" x2="1656.8828" y1="1207.8613" y2="1207.8613"/><polygon fill="#181818" points="1646.8828,1203.8613,1656.8828,1207.8613,1646.8828,1211.8613,1650.8828,1207.8613" style="stroke:#181818;stroke-width:1;"/><line style="stroke:#181818;stroke-width:1;" x1="732.4063" x2="732.4063" y1="1175.8613" y2="1180.8613"/><line style="stroke:#181818;stroke-width:1;" x1="732.4063" x2="1565.0488" y1="1180.8613" y2="1180.8613"/><line style="stroke:#181818;stroke-width:1;" x1="1565.0488" x2="1565.0488" y1="1180.8613" y2="1195.8613"/><polygon fill="#181818" points="1561.0488,1185.8613,1565.0488,1195.8613,1569.0488,1185.8613,1565.0488,1189.8613" style="stroke:#181818;stroke-width:1;"/><line style="stroke:#181818;stroke-width:1;" x1="1771.4556" x2="1790.0427" y1="1207.8613" y2="1207.8613"/><line style="stroke:#181818;stroke-width:1;" x1="1790.0427" x2="1790.0427" y1="1207.8613" y2="1320.2617"/><polygon fill="#181818" points="1786.0427,1310.2617,1790.0427,1320.2617,1794.0427,1310.2617,1790.0427,1314.2617" style="stroke:#181818;stroke-width:1;"/><line style="stroke:#181818;stroke-width:1;" x1="1565.0488" x2="1790.0427" y1="1320.2617" y2="1320.2617"/><line style="stroke:#181818;stroke-width:1;" x1="1657.6288" x2="1657.6288" y1="1320.2617" y2="1340.2617"/><polygon fill="#181818" points="1653.6288,1330.2617,1657.6288,1340.2617,1661.6288,1330.2617,1657.6288,1334.2617" style="stroke:#181818;stroke-width:1;"/><line style="stroke:#181818;stroke-width:1;" x1="1657.6288" x2="1657.6288" y1="1388.5273" y2="1408.5273"/><polygon fill="#181818" points="1653.6288,1398.5273,1657.6288,1408.5273,1661.6288,1398.5273,1657.6288,1402.5273" style="stroke:#181818;stroke-width:1;"/><line style="stroke:#181818;stroke-width:1;" x1="114.0977" x2="114.0977" y1="232.5156" y2="237.5156"/><line style="stroke:#181818;stroke-width:1;" x1="114.0977" x2="373.1509" y1="237.5156" y2="237.5156"/><line style="stroke:#181818;stroke-width:1;" x1="373.1509" x2="373.1509" y1="237.5156" y2="252.5156"/><polygon fill="#181818" points="369.1509,242.5156,373.1509,252.5156,377.1509,242.5156,373.1509,246.5156" style="stroke:#181818;stroke-width:1;"/><line style="stroke:#181818;stroke-width:1;" x1="373.1509" x2="373.1509" y1="503.1797" y2="508.1797"/><line style="stroke:#181818;stroke-width:1;" x1="373.1509" x2="732.4063" y1="508.1797" y2="508.1797"/><line style="stroke:#181818;stroke-width:1;" x1="732.4063" x2="732.4063" y1="508.1797" y2="523.1797"/><polygon fill="#181818" points="728.4063,513.1797,732.4063,523.1797,736.4063,513.1797,732.4063,517.1797" style="stroke:#181818;stroke-width:1;"/><line style="stroke:#181818;stroke-width:1;" x1="732.4063" x2="732.4063" y1="850.7988" y2="855.7988"/><line style="stroke:#181818;stroke-width:1;" x1="732.4063" x2="1217.7813" y1="855.7988" y2="855.7988"/><line style="stroke:#181818;stroke-width:1;" x1="1217.7813" x2="1217.7813" y1="855.7988" y2="870.7988"/><polygon fill="#181818" points="1213.7813,860.7988,1217.7813,870.7988,1221.7813,860.7988,1217.7813,864.7988" style="stroke:#181818;stroke-width:1;"/><line style="stroke:#181818;stroke-width:1;" x1="1217.7813" x2="1217.7813" y1="971.0645" y2="976.0645"/><line style="stroke:#181818;stroke-width:1;" x1="1217.7813" x2="732.4063" y1="976.0645" y2="976.0645"/><line style="stroke:#181818;stroke-width:1;" x1="732.4063" x2="732.4063" y1="976.0645" y2="991.0645"/><polygon fill="#181818" points="728.4063,981.0645,732.4063,991.0645,736.4063,981.0645,732.4063,985.0645" style="stroke:#181818;stroke-width:1;"/><line style="stroke:#181818;stroke-width:1;" x1="1657.6288" x2="1657.6288" y1="1442.6602" y2="1447.6602"/><line style="stroke:#181818;stroke-width:1;" x1="1657.6288" x2="732.4063" y1="1447.6602" y2="1447.6602"/><line style="stroke:#181818;stroke-width:1;" x1="732.4063" x2="732.4063" y1="1447.6602" y2="1462.6602"/><polygon fill="#181818" points="728.4063,1452.6602,732.4063,1462.6602,736.4063,1452.6602,732.4063,1456.6602" style="stroke:#181818;stroke-width:1;"/><line style="stroke:#181818;stroke-width:1;" x1="732.4063" x2="732.4063" y1="1605.0586" y2="1610.0586"/><line style="stroke:#181818;stroke-width:1;" x1="732.4063" x2="373.1509" y1="1610.0586" y2="1610.0586"/><line style="stroke:#181818;stroke-width:1;" x1="373.1509" x2="373.1509" y1="1610.0586" y2="1625.0586"/><polygon fill="#181818" points="369.1509,1615.0586,373.1509,1625.0586,377.1509,1615.0586,373.1509,1619.0586" style="stroke:#181818;stroke-width:1;"/><line style="stroke:#181818;stroke-width:1;" x1="373.1509" x2="373.1509" y1="1835.7227" y2="1840.7227"/><line style="stroke:#181818;stroke-width:1;" x1="373.1509" x2="114.0977" y1="1840.7227" y2="1840.7227"/><line style="stroke:#181818;stroke-width:1;" x1="114.0977" x2="114.0977" y1="1840.7227" y2="1855.7227"/><polygon fill="#181818" points="110.0977,1845.7227,114.0977,1855.7227,118.0977,1845.7227,114.0977,1849.7227" style="stroke:#181818;stroke-width:1;"/><text fill="#000000" font-family="sans-serif" font-size="18" lengthAdjust="spacing" textLength="229.334" x="21.7515" y="67.1875">&#128100; User (Business Analyst)</text><text fill="#000000" font-family="sans-serif" font-size="18" lengthAdjust="spacing" textLength="218.6279" x="262.8369" y="67.1875">Frontend (React - Vercel)</text><text fill="#000000" font-family="sans-serif" font-size="18" lengthAdjust="spacing" textLength="270.5889" x="585.6118" y="67.1875">Backend (FastAPI + LangChain)</text><text fill="#000000" font-family="sans-serif" font-size="18" lengthAdjust="spacing" textLength="252.9932" x="1090.2847" y="67.1875">Data Layer (Supabase + GCS)</text><text fill="#000000" font-family="sans-serif" font-size="18" lengthAdjust="spacing" textLength="86.7305" x="1600.2635" y="67.1875">LLM Layer</text><!--SRC=[bLNDRXit4BxhAGOfOCWm307jpJeK-h6S56eiUnC31VOotfrT4QP8bkJALg1hRWMANei4xQ4FqUVf2xIFq1bgjL9Q7vAJ179-llc-ZxDHHKqmKmPDGJ2nJcaRuHmkJNaUxJd_m4pRHtXKSGdPerffD1HwlUrNSrKlurWtjFtdjr_-WBU1FFJ7JL1y7s1aK6z2FDtsGaGVUnTldRPOjfqKQfZQebcHYRdfBwQpmULJGNemoUvEXxsBKNY0cuP2LDR0MY5CbiY1BrBLTmGttu2dDPc687eoPNWnx21TUIApdNbh8jz0_vQma8dko7C71dHnImMfDK6bUFGcuUAUTwXLYR4zhgnVOOGJ2EeTyUrK1QTnquQ3yxRsF2VVPDBbvPitYumn_IYW8Lgun-A1B-H-oVH9aZ8r1AUC8P_GNdiqDMt7kqZepp34qU8LdC6SBtXYPVw7zWGQuPdR-0tNldoANgQBz1G731wXydO5PKljiASgwE-9XhXnzEqfn2KP4CvFUm1T2H6kXiM6pxyUzaW7ajoaIfiYqGlqWNPcS6XA38TGaIu5IjnSIFeqp9IgOZQSLX6A94u4PPYgOjcO1s7oYfWQKO1MzrGAN-4WwsI3PZkL4UUu4QjbZSDxP3HdS3N9c2cMx45wPz5wwZY05KKKQdAZ37H9jwIdus7A0QoPwfI9w-Fc32ythbvJmHL1QaZgVvDQOrklQlQsJZhbCjULjJLBDj6sAK50OKs91qX8Fzy1Dw8sj32cOqdFZITDQ-JvElh6ZTBbZjgdc8oGcw1MIgFls92uXIU7p11xUELYKYatUrljdjpPlapYVz5ufsaxdt-_utwRRBNmQeMCIuvnZTpcNX_izTU7z_03XMInz4BQRj7cvcLJrsAs6VBAuNaF7fgXrl9om12LL1wg_Vhxtt_-3FlhPwjUEpAZLsszdTawGrNTrb5C2RifvEO4CEqe9PpSKcoyWH1zK_0_Alaj1sUDoFtvGYsyBMJv2IM7_8jHMNOkb8rY6zv47519vzbkqNoNNR_-jESNBZE1SzHpzr3vxS5wlzUaVHhLbAprdeXM_sB9MpeCeeWO1hL7jmn7Qw_5V6IZB_W2SCkreiSZ5OwObrLVMStVcFF6TGuCkzMLOLIXKjJk4fwlqJ4yPx8GhKisujEFFy5hcppoVF6zF_u5]--></g></svg>