<svg xmlns="http://www.w3.org/2000/svg" xmlns:xlink="http://www.w3.org/1999/xlink" contentStyleType="text/css" data-diagram-type="DESCRIPTION" height="556px" preserveAspectRatio="none" style="width:1266px;height:556px;background:#FFFFFF;" version="1.1" viewBox="0 0 1266 556" width="1266px" zoomAndPan="magnify"><title>Finance Copilot - Component Architecture</title><defs/><g><g class="title" data-source-line="1"><text fill="#000000" font-family="sans-serif" font-size="14" font-weight="bold" lengthAdjust="spacing" textLength="305.7852" x="473.3078" y="23.5352">Finance Copilot - Component Architecture</text></g><!--cluster Data Layer--><g class="cluster" data-entity="Data Layer" data-source-line="8" data-uid="ent0005" id="cluster_Data Layer"><path d="M542.04,143.9783 L619.9921,143.9783 A3.75,3.75 0 0 1 622.4921,146.4783 L629.4921,166.4666 L1139.04,166.4666 A2.5,2.5 0 0 1 1141.54,168.9666 L1141.54,246.9583 A2.5,2.5 0 0 1 1139.04,249.4583 L542.04,249.4583 A2.5,2.5 0 0 1 539.54,246.9583 L539.54,146.4783 A2.5,2.5 0 0 1 542.04,143.9783" fill="none" style="stroke:#000000;stroke-width:1.5;"/><line style="stroke:#000000;stroke-width:1.5;" x1="539.54" x2="629.4921" y1="166.4666" y2="166.4666"/><text fill="#000000" font-family="sans-serif" font-size="14" font-weight="bold" lengthAdjust="spacing" textLength="76.9521" x="543.54" y="159.5134">Data Layer</text></g><!--cluster LLM Layer--><g class="cluster" data-entity="LLM Layer" data-source-line="14" data-uid="ent0009" id="cluster_LLM Layer"><path d="M496.04,451.9483 L569.747,451.9483 A3.75,3.75 0 0 1 572.247,454.4483 L579.247,474.4366 L904.04,474.4366 A2.5,2.5 0 0 1 906.54,476.9366 L906.54,546.9383 A2.5,2.5 0 0 1 904.04,549.4383 L496.04,549.4383 A2.5,2.5 0 0 1 493.54,546.9383 L493.54,454.4483 A2.5,2.5 0 0 1 496.04,451.9483" fill="none" style="stroke:#000000;stroke-width:1.5;"/><line style="stroke:#000000;stroke-width:1.5;" x1="493.54" x2="579.247" y1="474.4366" y2="474.4366"/><text fill="#000000" font-family="sans-serif" font-size="14" font-weight="bold" lengthAdjust="spacing" textLength="72.707" x="497.54" y="467.4834">LLM Layer</text></g><!--entity RelDB--><g class="entity" data-entity="RelDB" data-source-line="9" data-uid="ent0006" id="entity_RelDB"><path d="M555.26,193.4783 C555.26,183.4783 637.5432,183.4783 637.5432,183.4783 C637.5432,183.4783 719.8264,183.4783 719.8264,193.4783 L719.8264,218.9666 C719.8264,228.9666 637.5432,228.9666 637.5432,228.9666 C637.5432,228.9666 555.26,228.9666 555.26,218.9666 L555.26,193.4783" fill="#F1F1F1" style="stroke:#181818;stroke-width:0.5;"/><path d="M555.26,193.4783 C555.26,203.4783 637.5432,203.4783 637.5432,203.4783 C637.5432,203.4783 719.8264,203.4783 719.8264,193.4783" fill="none" style="stroke:#181818;stroke-width:0.5;"/><text fill="#000000" font-family="sans-serif" font-size="14" lengthAdjust="spacing" textLength="144.5664" x="565.26" y="221.0134">Supabase (Relational)</text></g><!--entity VecDB--><g class="entity" data-entity="VecDB" data-source-line="10" data-uid="ent0007" id="entity_VecDB"><path d="M754.99,193.4783 C754.99,183.4783 833.5442,183.4783 833.5442,183.4783 C833.5442,183.4783 912.0984,183.4783 912.0984,193.4783 L912.0984,218.9666 C912.0984,228.9666 833.5442,228.9666 833.5442,228.9666 C833.5442,228.9666 754.99,228.9666 754.99,218.9666 L754.99,193.4783" fill="#F1F1F1" style="stroke:#181818;stroke-width:0.5;"/><path d="M754.99,193.4783 C754.99,203.4783 833.5442,203.4783 833.5442,203.4783 C833.5442,203.4783 912.0984,203.4783 912.0984,193.4783" fill="none" style="stroke:#181818;stroke-width:0.5;"/><text fill="#000000" font-family="sans-serif" font-size="14" lengthAdjust="spacing" textLength="137.1084" x="764.99" y="221.0134">Supabase (pgvector)</text></g><!--entity GCS--><g class="entity" data-entity="GCS" data-source-line="11" data-uid="ent0008" id="entity_GCS"><path d="M950.07,178.9783 L991.07,178.9783 A3.75,3.75 0 0 1 993.57,181.4783 L1000.57,199.9783 L1123.0202,199.9783 A2.5,2.5 0 0 1 1125.5202,202.4783 L1125.5202,230.9666 A2.5,2.5 0 0 1 1123.0202,233.4666 L950.07,233.4666 A2.5,2.5 0 0 1 947.57,230.9666 L947.57,181.4783 A2.5,2.5 0 0 1 950.07,178.9783" fill="#F1F1F1" style="stroke:#181818;stroke-width:0.5;"/><line style="stroke:#181818;stroke-width:0.5;" x1="947.57" x2="1000.57" y1="199.9783" y2="199.9783"/><text fill="#000000" font-family="sans-serif" font-size="14" lengthAdjust="spacing" textLength="147.9502" x="957.57" y="220.5134">Google Cloud Storage</text></g><!--entity HF--><g class="entity" data-entity="HF" data-source-line="15" data-uid="ent0010" id="entity_HF"><rect fill="#F1F1F1" height="46.4883" rx="2.5" ry="2.5" style="stroke:#181818;stroke-width:0.5;" width="158.3984" x="509.35" y="486.9483"/><rect fill="#F1F1F1" height="10" style="stroke:#181818;stroke-width:0.5;" width="15" x="647.7484" y="491.9483"/><rect fill="#F1F1F1" height="2" style="stroke:#181818;stroke-width:0.5;" width="4" x="645.7484" y="493.9483"/><rect fill="#F1F1F1" height="2" style="stroke:#181818;stroke-width:0.5;" width="4" x="645.7484" y="497.9483"/><text fill="#000000" font-family="sans-serif" font-size="14" lengthAdjust="spacing" textLength="118.3984" x="524.35" y="520.4834">Hugging Face API</text></g><!--entity OpenAI--><g class="entity" data-entity="OpenAI" data-source-line="16" data-uid="ent0011" id="entity_OpenAI"><rect fill="#F1F1F1" height="46.4883" rx="2.5" ry="2.5" style="stroke:#181818;stroke-width:0.5;" width="187.3008" x="702.89" y="486.9483"/><rect fill="#F1F1F1" height="10" style="stroke:#181818;stroke-width:0.5;" width="15" x="870.1908" y="491.9483"/><rect fill="#F1F1F1" height="2" style="stroke:#181818;stroke-width:0.5;" width="4" x="868.1908" y="493.9483"/><rect fill="#F1F1F1" height="2" style="stroke:#181818;stroke-width:0.5;" width="4" x="868.1908" y="497.9483"/><text fill="#000000" font-family="sans-serif" font-size="14" lengthAdjust="spacing" textLength="147.3008" x="717.89" y="520.4834">OpenAI API (Optional)</text></g><!--entity User--><g class="entity" data-entity="User" data-source-line="3" data-uid="ent0002" id="entity_User"><rect fill="#F1F1F1" height="36.4883" rx="2.5" ry="2.5" style="stroke:#181818;stroke-width:0.5;" width="200.2598" x="37.41" y="44.4883"/><text fill="#000000" font-family="sans-serif" font-size="14" lengthAdjust="spacing" textLength="180.2598" x="47.41" y="68.0234">&#128100; User (Business Analyst)</text></g><!--entity Frontend--><g class="entity" data-entity="Frontend" data-source-line="5" data-uid="ent0003" id="entity_Frontend"><polygon fill="#F1F1F1" points="32.52,192.9783,42.52,182.9783,242.5639,182.9783,242.5639,219.4666,232.5639,229.4666,32.52,229.4666,32.52,192.9783" style="stroke:#181818;stroke-width:0.5;"/><line style="stroke:#181818;stroke-width:0.5;" x1="232.5639" x2="242.5639" y1="192.9783" y2="182.9783"/><line style="stroke:#181818;stroke-width:0.5;" x1="32.52" x2="232.5639" y1="192.9783" y2="192.9783"/><line style="stroke:#181818;stroke-width:0.5;" x1="232.5639" x2="232.5639" y1="192.9783" y2="229.4666"/><text fill="#000000" font-family="sans-serif" font-size="14" lengthAdjust="spacing" textLength="170.0439" x="47.52" y="216.5134">Frontend (React - Vercel)</text></g><!--entity Backend--><g class="entity" data-entity="Backend" data-source-line="6" data-uid="ent0004" id="entity_Backend"><polygon fill="#F1F1F1" points="499.82,337.4583,509.82,327.4583,877.2624,327.4583,877.2624,363.9466,867.2624,373.9466,499.82,373.9466,499.82,337.4583" style="stroke:#181818;stroke-width:0.5;"/><line style="stroke:#181818;stroke-width:0.5;" x1="867.2624" x2="877.2624" y1="337.4583" y2="327.4583"/><line style="stroke:#181818;stroke-width:0.5;" x1="499.82" x2="867.2624" y1="337.4583" y2="337.4583"/><line style="stroke:#181818;stroke-width:0.5;" x1="867.2624" x2="867.2624" y1="337.4583" y2="373.9466"/><text fill="#000000" font-family="sans-serif" font-size="14" lengthAdjust="spacing" textLength="337.4424" x="514.82" y="360.9934">Backend (FastAPI + LangChain - Cloud Functions)</text></g><!--link User to Frontend--><g class="link" data-entity-1="User" data-entity-2="Frontend" data-source-line="19" data-uid="lnk12" id="link_User_Frontend"><path d="M137.54,81.3583 C137.54,106.9983 137.54,148.5483 137.54,176.6883" fill="none" id="User-to-Frontend" style="stroke:#181818;stroke-width:1;"/><polygon fill="#181818" points="137.54,182.6883,141.54,173.6883,137.54,177.6883,133.54,173.6883,137.54,182.6883" style="stroke:#181818;stroke-width:1;"/><text fill="#000000" font-family="sans-serif" font-size="13" lengthAdjust="spacing" textLength="148.9478" x="138.54" y="124.5466">Interact (Chat / Upload)</text></g><!--link Frontend to Backend--><g class="link" data-entity-1="Frontend" data-entity-2="Backend" data-source-line="20" data-uid="lnk13" id="link_Frontend_Backend"><path d="M78.36,229.8083 C41.8,246.9983 6,271.9783 29.54,297.4583 C61.06,331.5783 310.2115,343.3038 493.5815,347.4138" fill="none" id="Frontend-to-Backend" style="stroke:#181818;stroke-width:1;"/><polygon fill="#181818" points="499.58,347.5483,490.6719,343.3476,494.5813,347.4362,490.4926,351.3456,499.58,347.5483" style="stroke:#181818;stroke-width:1;"/><text fill="#000000" font-family="sans-serif" font-size="13" lengthAdjust="spacing" textLength="168.2637" x="30.54" y="286.5266">HTTPS Requests (API Calls)</text></g><!--link Backend to Frontend--><g class="link" data-entity-1="Backend" data-entity-2="Frontend" data-source-line="29" data-uid="lnk22" id="link_Backend_Frontend"><path d="M499.4,335.8983 C406.15,327.2283 304.62,314.4383 261.54,297.4583 C222.16,281.9383 188.2927,254.932 164.9327,233.622" fill="none" id="Backend-to-Frontend" style="stroke:#181818;stroke-width:1;"/><polygon fill="#181818" points="160.5,229.5783,164.4532,238.5989,164.1939,232.948,169.8448,232.6887,160.5,229.5783" style="stroke:#181818;stroke-width:1;"/><text fill="#000000" font-family="sans-serif" font-size="13" lengthAdjust="spacing" textLength="131.7266" x="262.54" y="286.5266">Responses / Insights</text></g><!--link Backend to RelDB--><g class="link" data-entity-1="Backend" data-entity-2="RelDB" data-source-line="21" data-uid="lnk14" id="link_Backend_RelDB"><path d="M499.53,331.9383 C459.62,324.2183 425.57,313.1883 412.54,297.4583 C368.38,244.1483 467.9063,222.7475 548.9663,213.7875" fill="none" id="Backend-to-RelDB" style="stroke:#181818;stroke-width:1;"/><polygon fill="#181818" points="554.93,213.1283,545.545,210.1413,549.9603,213.6776,546.4239,218.0929,554.93,213.1283" style="stroke:#181818;stroke-width:1;"/><text fill="#000000" font-family="sans-serif" font-size="13" lengthAdjust="spacing" textLength="89.8447" x="450.4231" y="279.0266">Store/Retrieve</text><text fill="#000000" font-family="sans-serif" font-size="13" lengthAdjust="spacing" textLength="163.6108" x="413.54" y="294.3372">User Metadata, Workflows</text></g><!--link RelDB to Backend--><g class="link" data-entity-1="RelDB" data-entity-2="Backend" data-source-line="26" data-uid="lnk19" id="link_RelDB_Backend"><path d="M624.69,229.3983 C615.53,248.3283 606.61,275.8383 617.54,297.4583 C623.55,309.3383 628.828,315.6487 639.578,323.4687" fill="none" id="RelDB-to-Backend" style="stroke:#181818;stroke-width:1;"/><polygon fill="#181818" points="644.43,326.9983,639.505,318.4692,640.3866,324.057,634.7989,324.9386,644.43,326.9983" style="stroke:#181818;stroke-width:1;"/><text fill="#000000" font-family="sans-serif" font-size="13" lengthAdjust="spacing" textLength="95.0815" x="618.54" y="286.5266">Relational Data</text></g><!--link Backend to VecDB--><g class="link" data-entity-1="Backend" data-entity-2="VecDB" data-source-line="22" data-uid="lnk15" id="link_Backend_VecDB"><path d="M802.83,327.0583 C831.12,319.0483 855.87,309.0883 864.54,297.4583 C879.7,277.1483 869.1336,253.7776 855.3836,234.3276" fill="none" id="Backend-to-VecDB" style="stroke:#181818;stroke-width:1;"/><polygon fill="#181818" points="851.92,229.4283,853.8491,239.0864,854.8063,233.5111,860.3816,234.4683,851.92,229.4283" style="stroke:#181818;stroke-width:1;"/><text fill="#000000" font-family="sans-serif" font-size="13" lengthAdjust="spacing" textLength="89.8447" x="893.7677" y="279.0266">Store/Retrieve</text><text fill="#000000" font-family="sans-serif" font-size="13" lengthAdjust="spacing" textLength="133.1802" x="872.1" y="294.3372">Embeddings, Chunks</text></g><!--link VecDB to Backend--><g class="link" data-entity-1="VecDB" data-entity-2="Backend" data-source-line="27" data-uid="lnk20" id="link_VecDB_Backend"><path d="M796.86,229.2283 C781.66,239.2683 764.39,251.9283 750.54,265.4583 C731.46,284.1283 717.0998,304.0846 705.5598,321.9946" fill="none" id="VecDB-to-Backend" style="stroke:#181818;stroke-width:1;"/><polygon fill="#181818" points="702.31,327.0383,710.5472,321.6393,705.0182,322.8352,703.8223,317.3062,702.31,327.0383" style="stroke:#181818;stroke-width:1;"/><text fill="#000000" font-family="sans-serif" font-size="13" lengthAdjust="spacing" textLength="104.8379" x="751.54" y="286.5266">Relevant Chunks</text></g><!--link Backend to GCS--><g class="link" data-entity-1="Backend" data-entity-2="GCS" data-source-line="23" data-uid="lnk16" id="link_Backend_GCS"><path d="M877.64,337.1983 C937.22,329.5483 993.11,317.2383 1014.54,297.4583 C1031.97,281.3883 1036.389,260.0134 1037.209,239.6134" fill="none" id="Backend-to-GCS" style="stroke:#181818;stroke-width:1;"/><polygon fill="#181818" points="1037.45,233.6183,1033.0918,242.4504,1037.2492,238.6142,1041.0853,242.7717,1037.45,233.6183" style="stroke:#181818;stroke-width:1;"/><text fill="#000000" font-family="sans-serif" font-size="13" lengthAdjust="spacing" textLength="84.9126" x="1033.68" y="279.0266">Upload/Fetch</text><text fill="#000000" font-family="sans-serif" font-size="13" lengthAdjust="spacing" textLength="67.5898" x="1042.3414" y="294.3372">Files, Docs</text></g><!--link GCS to Backend--><g class="link" data-entity-1="GCS" data-entity-2="Backend" data-source-line="28" data-uid="lnk21" id="link_GCS_Backend"><path d="M1091.47,233.8683 C1120.46,251.4283 1146.3,275.2083 1126.54,297.4583 C1109.35,316.8283 994.0527,329.8528 883.4627,338.2728" fill="none" id="GCS-to-Backend" style="stroke:#181818;stroke-width:1;"/><polygon fill="#181818" points="877.48,338.7283,886.7577,342.0335,882.4656,338.3487,886.1504,334.0566,877.48,338.7283" style="stroke:#181818;stroke-width:1;"/><text fill="#000000" font-family="sans-serif" font-size="13" lengthAdjust="spacing" textLength="123.9507" x="1134.45" y="286.5266">File Links / Content</text></g><!--link Backend to HF--><g class="link" data-entity-1="Backend" data-entity-2="HF" data-source-line="24" data-uid="lnk17" id="link_Backend_HF"><path d="M643.28,374.1983 C631.36,382.0983 619.6,392.0383 611.54,403.9483 C594.67,428.8883 590.2369,458.0967 589.0369,480.7867" fill="none" id="Backend-to-HF" style="stroke:#181818;stroke-width:1;"/><polygon fill="#181818" points="588.72,486.7783,593.1897,478.0021,588.9841,481.7853,585.2009,477.5796,588.72,486.7783" style="stroke:#181818;stroke-width:1;"/><text fill="#000000" font-family="sans-serif" font-size="13" lengthAdjust="spacing" textLength="114.2197" x="612.54" y="417.5166">Prompt + Context</text><text fill="#000000" font-family="sans-serif" font-size="13" lengthAdjust="spacing" textLength="75.1499" x="632.0749" y="432.8272">(Query LLM)</text></g><!--link Backend to OpenAI--><g class="link" data-entity-1="Backend" data-entity-2="OpenAI" data-source-line="25" data-uid="lnk18" id="link_Backend_OpenAI"><path d="M708.29,374.3183 C715.84,383.3283 724.37,393.9183 731.54,403.9483 C751.16,431.3683 768.159,459.5427 780.699,481.2527" fill="none" id="Backend-to-OpenAI" style="stroke:#181818;stroke-width:1;"/><polygon fill="#181818" points="783.7,486.4483,782.6622,476.6543,781.1991,482.1186,775.7348,480.6556,783.7,486.4483" style="stroke:#181818;stroke-width:1;"/><text fill="#000000" font-family="sans-serif" font-size="13" lengthAdjust="spacing" textLength="114.2197" x="753.44" y="417.5166">Prompt + Context</text><text fill="#000000" font-family="sans-serif" font-size="13" lengthAdjust="spacing" textLength="62.3467" x="779.3765" y="432.8272">(Optional)</text></g><!--SRC=[TLD1Rjim4Bpp5GkVP3I6xpaKiEKgDk0WhfsaXxe7Xjh8X9cbIb9kZQAFw0jwwGFxX2ufsRNGzBRKpd1dPgcWWq4eD4bI2BcjjR41Hbozr9QG0aoSskc0AZGEXN1SIAgOC_ZzyySlUF3e89isNXDw3nEIvkZ3S03IfvuGP4i65yvIG2eXMwDKSS8ZEeMcHPww7NWgrJvX2-d3PBM0Dx3aeVbEQehQZ6rAA1fIGLloxHKTHuYQ2rdnBJCP9FEEw0RmJG2KV7wIdZkRfcuh5cDal4HsGlWyc_u7MrS7DczTYtn4bP3FrfGSmU36sfXAgst3CDQGW3VvHdo_aBLStbwg-ZXlgafJ1ONa1R3PJv4qBsBhhaQQBE97oExgJcVgjvruRrh0QFJsd25Smu8B5rFEEB80OtYeZPNbK9mnaN1A-Hhcz_Uh3Nl_tA0F7h8uC9V6-A4uWI8XXSFmw0x7QmnEum6tb2JSOf0njIluODt-sTWllaTEURr2VlVoX6N90VWho7SDxViqJez9hVvnWK7jjbHeWuoUMTN7pWk6hXo_tC0l9ezMluOjPUyRT4VWtFjskdHVfPpJ5gtfVbv_Nmt4HoPQR_zWy23v_-bCHIDzHBG1IyrDtb0QJQ4dy6AZQ_JyEtgCq0LvNUs2_mC0]--></g></svg>