<svg xmlns="http://www.w3.org/2000/svg" xmlns:xlink="http://www.w3.org/1999/xlink" contentStyleType="text/css" data-diagram-type="ACTIVITY" height="545px" preserveAspectRatio="none" style="width:1306px;height:545px;background:#FFFFFF;" version="1.1" viewBox="0 0 1306 545" width="1306px" zoomAndPan="magnify"><defs/><g><rect fill="none" height="21.1992" style="stroke:none;stroke-width:1;" width="1273.2686" x="15" y="12.2969"/><ellipse cx="80.5879" cy="48.4961" fill="#222222" rx="10" ry="10" style="stroke:#222222;stroke-width:1;"/><rect fill="#F1F1F1" height="34.1328" rx="12.5" ry="12.5" style="stroke:#181818;stroke-width:0.5;" width="117.793" x="21.6914" y="78.4961"/><text fill="#000000" font-family="sans-serif" font-size="12" lengthAdjust="spacing" textLength="97.793" x="31.6914" y="100.0977">User uploads file</text><rect fill="#F1F1F1" height="34.1328" rx="12.5" ry="12.5" style="stroke:#181818;stroke-width:0.5;" width="119.1758" x="21" y="457.4258"/><text fill="#000000" font-family="sans-serif" font-size="12" lengthAdjust="spacing" textLength="99.1758" x="31" y="479.0273">Display response</text><ellipse cx="80.5879" cy="522.5586" fill="none" rx="11" ry="11" style="stroke:#222222;stroke-width:1;"/><ellipse cx="80.5879" cy="522.5586" fill="#222222" rx="6" ry="6" style="stroke:#222222;stroke-width:1;"/><line style="stroke:#000000;stroke-width:1.5;" x1="15" x2="15" y1="12.2969" y2="533.5586"/><path d="M286.7002,137.04 L286.7002,145.6953 L266.7002,149.6953 L286.7002,153.6953 L286.7002,162.3506 A0,0 0 0 0 286.7002,162.3506 L428.4199,162.3506 A0,0 0 0 0 428.4199,162.3506 L428.4199,147.04 L418.4199,137.04 L286.7002,137.04 A0,0 0 0 0 286.7002,137.04" fill="#FEFFDD" style="stroke:#181818;stroke-width:0.5;"/><path d="M418.4199,137.04 L418.4199,147.04 L428.4199,147.04 L418.4199,137.04" fill="#FEFFDD" style="stroke:#181818;stroke-width:0.5;"/><text fill="#000000" font-family="sans-serif" font-size="13" lengthAdjust="spacing" textLength="120.7197" x="292.7002" y="154.6084">Data = JSON + PDF</text><rect fill="#F1F1F1" height="34.1328" rx="12.5" ry="12.5" style="stroke:#181818;stroke-width:0.5;" width="85.3027" x="181.3975" y="132.6289"/><text fill="#000000" font-family="sans-serif" font-size="12" lengthAdjust="spacing" textLength="65.3027" x="191.3975" y="154.2305">Receive file</text><path d="M317.9219,245.3057 L317.9219,253.9609 L297.9219,257.9609 L317.9219,261.9609 L317.9219,270.6162 A0,0 0 0 0 317.9219,270.6162 L466.478,270.6162 A0,0 0 0 0 466.478,270.6162 L466.478,255.3057 L456.478,245.3057 L317.9219,245.3057 A0,0 0 0 0 317.9219,245.3057" fill="#FEFFDD" style="stroke:#181818;stroke-width:0.5;"/><path d="M456.478,245.3057 L456.478,255.3057 L466.478,255.3057 L456.478,245.3057" fill="#FEFFDD" style="stroke:#181818;stroke-width:0.5;"/><text fill="#000000" font-family="sans-serif" font-size="13" lengthAdjust="spacing" textLength="127.5562" x="323.9219" y="262.874">Data Flow = Vectors</text><rect fill="#F1F1F1" height="34.1328" rx="12.5" ry="12.5" style="stroke:#181818;stroke-width:0.5;" width="147.7461" x="150.1758" y="240.8945"/><text fill="#000000" font-family="sans-serif" font-size="12" lengthAdjust="spacing" textLength="127.7461" x="160.1758" y="262.4961">Generate embeddings</text><rect fill="#F1F1F1" height="34.1328" rx="12.5" ry="12.5" style="stroke:#181818;stroke-width:0.5;" width="99.1309" x="174.4834" y="403.293"/><text fill="#000000" font-family="sans-serif" font-size="12" lengthAdjust="spacing" textLength="79.1309" x="184.4834" y="424.8945">Merge results</text><line style="stroke:#000000;stroke-width:1.5;" x1="144.1758" x2="144.1758" y1="12.2969" y2="533.5586"/><path d="M719.978,191.1729 L719.978,199.8281 L699.978,203.8281 L719.978,207.8281 L719.978,216.4834 A0,0 0 0 0 719.978,216.4834 L891.4746,216.4834 A0,0 0 0 0 891.4746,216.4834 L891.4746,201.1729 L881.4746,191.1729 L719.978,191.1729 A0,0 0 0 0 719.978,191.1729" fill="#FEFFDD" style="stroke:#181818;stroke-width:0.5;"/><path d="M881.4746,191.1729 L881.4746,201.1729 L891.4746,201.1729 L881.4746,191.1729" fill="#FEFFDD" style="stroke:#181818;stroke-width:0.5;"/><text fill="#000000" font-family="sans-serif" font-size="13" lengthAdjust="spacing" textLength="150.4966" x="725.978" y="208.7412">Data Flow = File Upload</text><rect fill="#F1F1F1" height="34.1328" rx="12.5" ry="12.5" style="stroke:#181818;stroke-width:0.5;" width="195.2422" x="504.7358" y="186.7617"/><text fill="#000000" font-family="sans-serif" font-size="12" lengthAdjust="spacing" textLength="175.2422" x="514.7358" y="208.3633">Store in Google Cloud Storage</text><rect fill="#F1F1F1" height="34.1328" rx="12.5" ry="12.5" style="stroke:#181818;stroke-width:0.5;" width="249.7578" x="477.478" y="295.0273"/><text fill="#000000" font-family="sans-serif" font-size="12" lengthAdjust="spacing" textLength="229.7578" x="487.478" y="316.6289">Save embeddings in Supabase pgvector</text><line style="stroke:#000000;stroke-width:1.5;" x1="471.478" x2="471.478" y1="12.2969" y2="533.5586"/><path d="M1068.4043,353.5713 L1068.4043,362.2266 L1048.4043,366.2266 L1068.4043,370.2266 L1068.4043,378.8818 A0,0 0 0 0 1068.4043,378.8818 L1281.4209,378.8818 A0,0 0 0 0 1281.4209,378.8818 L1281.4209,363.5713 L1271.4209,353.5713 L1068.4043,353.5713 A0,0 0 0 0 1068.4043,353.5713" fill="#FEFFDD" style="stroke:#181818;stroke-width:0.5;"/><path d="M1271.4209,353.5713 L1271.4209,363.5713 L1281.4209,363.5713 L1271.4209,353.5713" fill="#FEFFDD" style="stroke:#181818;stroke-width:0.5;"/><text fill="#000000" font-family="sans-serif" font-size="13" lengthAdjust="spacing" textLength="192.0166" x="1074.4043" y="371.1396">Data Flow = Prompt + Chunks</text><rect fill="#F1F1F1" height="34.1328" rx="12.5" ry="12.5" style="stroke:#181818;stroke-width:0.5;" width="145.9297" x="902.4746" y="349.1602"/><text fill="#000000" font-family="sans-serif" font-size="12" lengthAdjust="spacing" textLength="125.9297" x="912.4746" y="370.7617">Send query + context</text><line style="stroke:#000000;stroke-width:1.5;" x1="896.4746" x2="896.4746" y1="12.2969" y2="533.5586"/><line style="stroke:#000000;stroke-width:1.5;" x1="1286.4209" x2="1286.4209" y1="12.2969" y2="533.5586"/><line style="stroke:#181818;stroke-width:1;" x1="80.5879" x2="80.5879" y1="58.4961" y2="78.4961"/><polygon fill="#181818" points="76.5879,68.4961,80.5879,78.4961,84.5879,68.4961,80.5879,72.4961" style="stroke:#181818;stroke-width:1;"/><line style="stroke:#181818;stroke-width:1;" x1="80.5879" x2="80.5879" y1="491.5586" y2="511.5586"/><polygon fill="#181818" points="76.5879,501.5586,80.5879,511.5586,84.5879,501.5586,80.5879,505.5586" style="stroke:#181818;stroke-width:1;"/><line style="stroke:#181818;stroke-width:1;" x1="80.5879" x2="80.5879" y1="112.6289" y2="117.6289"/><line style="stroke:#181818;stroke-width:1;" x1="80.5879" x2="224.0488" y1="117.6289" y2="117.6289"/><line style="stroke:#181818;stroke-width:1;" x1="224.0488" x2="224.0488" y1="117.6289" y2="132.6289"/><polygon fill="#181818" points="220.0488,122.6289,224.0488,132.6289,228.0488,122.6289,224.0488,126.6289" style="stroke:#181818;stroke-width:1;"/><line style="stroke:#181818;stroke-width:1;" x1="224.0488" x2="224.0488" y1="166.7617" y2="171.7617"/><line style="stroke:#181818;stroke-width:1;" x1="224.0488" x2="602.3569" y1="171.7617" y2="171.7617"/><line style="stroke:#181818;stroke-width:1;" x1="602.3569" x2="602.3569" y1="171.7617" y2="186.7617"/><polygon fill="#181818" points="598.3569,176.7617,602.3569,186.7617,606.3569,176.7617,602.3569,180.7617" style="stroke:#181818;stroke-width:1;"/><line style="stroke:#181818;stroke-width:1;" x1="602.3569" x2="602.3569" y1="220.8945" y2="225.8945"/><line style="stroke:#181818;stroke-width:1;" x1="602.3569" x2="224.0488" y1="225.8945" y2="225.8945"/><line style="stroke:#181818;stroke-width:1;" x1="224.0488" x2="224.0488" y1="225.8945" y2="240.8945"/><polygon fill="#181818" points="220.0488,230.8945,224.0488,240.8945,228.0488,230.8945,224.0488,234.8945" style="stroke:#181818;stroke-width:1;"/><line style="stroke:#181818;stroke-width:1;" x1="224.0488" x2="224.0488" y1="275.0273" y2="280.0273"/><line style="stroke:#181818;stroke-width:1;" x1="224.0488" x2="602.3569" y1="280.0273" y2="280.0273"/><line style="stroke:#181818;stroke-width:1;" x1="602.3569" x2="602.3569" y1="280.0273" y2="295.0273"/><polygon fill="#181818" points="598.3569,285.0273,602.3569,295.0273,606.3569,285.0273,602.3569,289.0273" style="stroke:#181818;stroke-width:1;"/><line style="stroke:#181818;stroke-width:1;" x1="602.3569" x2="602.3569" y1="329.1602" y2="334.1602"/><line style="stroke:#181818;stroke-width:1;" x1="602.3569" x2="975.4395" y1="334.1602" y2="334.1602"/><line style="stroke:#181818;stroke-width:1;" x1="975.4395" x2="975.4395" y1="334.1602" y2="349.1602"/><polygon fill="#181818" points="971.4395,339.1602,975.4395,349.1602,979.4395,339.1602,975.4395,343.1602" style="stroke:#181818;stroke-width:1;"/><line style="stroke:#181818;stroke-width:1;" x1="975.4395" x2="975.4395" y1="383.293" y2="388.293"/><line style="stroke:#181818;stroke-width:1;" x1="975.4395" x2="224.0488" y1="388.293" y2="388.293"/><line style="stroke:#181818;stroke-width:1;" x1="224.0488" x2="224.0488" y1="388.293" y2="403.293"/><polygon fill="#181818" points="220.0488,393.293,224.0488,403.293,228.0488,393.293,224.0488,397.293" style="stroke:#181818;stroke-width:1;"/><line style="stroke:#181818;stroke-width:1;" x1="224.0488" x2="224.0488" y1="437.4258" y2="442.4258"/><line style="stroke:#181818;stroke-width:1;" x1="224.0488" x2="80.5879" y1="442.4258" y2="442.4258"/><line style="stroke:#181818;stroke-width:1;" x1="80.5879" x2="80.5879" y1="442.4258" y2="457.4258"/><polygon fill="#181818" points="76.5879,447.4258,80.5879,457.4258,84.5879,447.4258,80.5879,451.4258" style="stroke:#181818;stroke-width:1;"/><text fill="#000000" font-family="sans-serif" font-size="18" lengthAdjust="spacing" textLength="78.5039" x="40.3359" y="29.6992">Frontend</text><text fill="#000000" font-family="sans-serif" font-size="18" lengthAdjust="spacing" textLength="72.5625" x="271.5457" y="29.6992">Backend</text><text fill="#000000" font-family="sans-serif" font-size="18" lengthAdjust="spacing" textLength="40.0957" x="663.9285" y="29.6992">Data</text><text fill="#000000" font-family="sans-serif" font-size="18" lengthAdjust="spacing" textLength="34.6992" x="1074.0981" y="29.6992">LLM</text><!--SRC=[TL3DRi8m3BxtANpV6tJQPLH5cc2WLN0thHSYGfp5JXbI7tv9DMaWZQlz_KzjPA_aXwaInQXLlHEAa89Z70G-hQFdgffUiJ_DeFg3Uh8Z_NuyAq6qvgWrDAW8B_3MRTxX2RPDctdbbacTSYIm7fRCnX4i7AS1oXNDVogjuqkMQhC7xEOeTncMv2bYvj3vGCDWlP778dlgiu_SXC7nbbbYTIdW0OKWc766bywhrRgWioLy9OhNNAelMtthOxDjv7FGZ5mSap_9NUerHPD99Ccf58E_wUl6Id1uBT_0Nl8ceXn-0000]--></g></svg>